<svg xmlns="http://www.w3.org/2000/svg" version="1.1" viewBox="-5.0 -10.0 110.0 135.0">
 <path d="m60.934 37.934c0.91797 1.8359 4.0039 8.2852 4.2812 12.707 1.6953-0.99609 4.6719-2.9492 7.9531-6 4.5156-4.2031 10.527-11.398 13.875-22.012-2.5938-0.89062-10.246-3.7617-19.102-9.418l-10.277-5.9336c-0.10547-0.0625-0.20703-0.046875-0.26172-0.035156-0.050782 0.015624-0.14844 0.054687-0.21094 0.16016l-3.9844 6.8984c-0.054687 0.09375-0.0625 0.16797-0.03125 0.26953 0.03125 0.10156 0.078125 0.16016 0.17188 0.20703 2.3984 1.2148 8.1562 4.6836 9.8477 10.664 1.0938 3.8633 0.32813 8.0625-2.2695 12.496zm3.2344 15.367c-0.21484 0-0.42578-0.070312-0.60156-0.20703-0.28906-0.22656-0.42969-0.59766-0.35938-0.95703 0.65234-3.3828-2.8516-11.102-4.2578-13.793-0.16016-0.30469-0.14844-0.67188 0.03125-0.96484 2.5312-4.1211 3.3164-7.9648 2.3398-11.414-1.4844-5.2344-6.6836-8.3555-8.8516-9.4492h-0.003906c-0.57422-0.29297-0.98047-0.77344-1.1641-1.3945-0.18359-0.61719-0.10938-1.2422 0.21484-1.8008l3.9844-6.8984c0.30469-0.53125 0.80078-0.91016 1.3945-1.0703 0.59375-0.16016 1.2109-0.078124 1.7422 0.22656l10.301 5.9453c0.011719 0.007812 0.023438 0.015624 0.035156 0.023437 10.473 6.6992 19.473 9.4844 19.566 9.5117 0.51172 0.15625 0.80469 0.69922 0.65234 1.2109-3.4219 11.57-9.9102 19.359-14.754 23.852-5.2617 4.8789-9.6719 6.9961-9.8555 7.0859-0.13281 0.0625-0.27734 0.09375-0.41797 0.09375z" fill-rule="evenodd"/>
 <path d="m63.102 46.57c-0.30078 0-0.59766-0.13672-0.78906-0.40234-0.32031-0.43359-0.22266-1.0469 0.21094-1.3633 4.957-3.625 13.934-11.777 18.328-25.602 0.16406-0.51562 0.71094-0.80078 1.2266-0.63281 0.51562 0.16406 0.80078 0.71094 0.63281 1.2266-4.5625 14.355-13.887 22.82-19.035 26.586-0.17578 0.12891-0.375 0.1875-0.57422 0.1875z" fill-rule="evenodd"/>
 <path d="m57.453 27.922c-0.16797 0-0.33984-0.042969-0.48828-0.13281l-8.0078-4.625c-0.22656-0.12891-0.39062-0.33984-0.45703-0.58984s-0.03125-0.51562 0.097656-0.74219l3.7656-6.5234c0.26953-0.46484 0.86719-0.625 1.3359-0.35547s0.625 0.86719 0.35938 1.332l-3.2773 5.6797 6.3164 3.6484 2.4609-4.2617c0.26953-0.46875 0.86719-0.625 1.3359-0.35937 0.46875 0.26953 0.625 0.86719 0.35938 1.3359l-2.9492 5.1055c-0.12891 0.22266-0.34375 0.38672-0.59375 0.45312-0.082032 0.023437-0.16797 0.035156-0.25391 0.035156z" fill-rule="evenodd"/>
 <path d="m37.594 45.059c-0.16797 0-0.33594-0.039063-0.48828-0.12891-0.46484-0.26953-0.625-0.86719-0.35547-1.3359l12.383-21.453c0.26953-0.46484 0.86719-0.625 1.3359-0.35938 0.46875 0.26953 0.625 0.86719 0.35938 1.3359l-12.387 21.453c-0.17969 0.3125-0.50781 0.48828-0.84766 0.48828zm6.9375 4.0078c-0.16406 0-0.33203-0.042968-0.48828-0.13281-0.46875-0.26953-0.625-0.86719-0.35938-1.332l12.387-21.453c0.26953-0.46484 0.86719-0.625 1.3359-0.35547 0.46484 0.26953 0.625 0.86719 0.35547 1.332l-12.383 21.453c-0.17969 0.3125-0.51172 0.48828-0.84766 0.48828zm-28.281 45.664c-0.73828 0-1.4727-0.19141-2.1289-0.57422l-1.2148-0.70312c-2.043-1.1797-2.7461-3.8008-1.5664-5.8438l22.422-38.828c0.26953-0.46875 0.86328-0.62891 1.332-0.35938s0.625 0.86719 0.35938 1.3359l-22.418 38.828c-0.64062 1.1094-0.26172 2.5391 0.85156 3.1797l1.2188 0.70312c0.53516 0.30859 1.1641 0.39062 1.7656 0.23047 0.60156-0.16016 1.1055-0.54688 1.4141-1.082l22.418-38.828c0.26953-0.46484 0.86719-0.625 1.3359-0.35937 0.46484 0.26953 0.625 0.86719 0.35547 1.3359l-22.418 38.828c-0.57031 0.98828-1.4922 1.6953-2.5977 1.9922-0.37109 0.097656-0.74609 0.14844-1.1172 0.14844z" fill-rule="evenodd"/>
 <path d="m35.398 48.602 6.3203 3.6445 2.0156-3.4922-6.3203-3.6484-2.0156 3.4922zm6.6758 5.957c-0.16797 0-0.33203-0.039063-0.48828-0.12891l-8.0078-4.625c-0.46875-0.26953-0.62891-0.86719-0.35938-1.3359l2.9922-5.1836c0.26953-0.46484 0.86719-0.625 1.3359-0.35938l8.0117 4.625c0.22266 0.12891 0.38672 0.34375 0.45312 0.59375 0.066406 0.25 0.03125 0.51562-0.097657 0.74219l-2.9922 5.1836c-0.17969 0.3125-0.50781 0.48828-0.84766 0.48828z" fill-rule="evenodd"/>
 <path d="m61.68 25.074c-0.16406 0-0.33203-0.042969-0.48828-0.13281-0.46875-0.26953-0.625-0.86719-0.35938-1.332l6.7695-11.727c0.26953-0.46484 0.86719-0.625 1.3359-0.35937 0.46484 0.26953 0.625 0.86719 0.35547 1.3359l-6.7695 11.727c-0.17969 0.3125-0.51172 0.48828-0.84766 0.48828z" fill-rule="evenodd"/>
 <path d="m20.871 90.043c-0.16797 0-0.33203-0.039063-0.48828-0.12891l-6.9336-4.0039c-0.46875-0.26953-0.62891-0.86719-0.35938-1.3359 0.26953-0.46875 0.86719-0.625 1.3359-0.35938l6.9375 4.0039c0.46875 0.26953 0.625 0.86719 0.35938 1.332-0.17969 0.3125-0.50781 0.48828-0.84766 0.48828z" fill-rule="evenodd"/>
 <path d="m24.258 84.18c-0.16797 0-0.33203-0.042969-0.48828-0.12891l-6.9336-4.0078c-0.46875-0.26953-0.62891-0.86719-0.35938-1.332 0.26953-0.46875 0.86719-0.62891 1.3359-0.35938l6.9375 4.0039c0.46875 0.26953 0.625 0.87109 0.35938 1.3359-0.17969 0.3125-0.51172 0.48828-0.84766 0.48828z" fill-rule="evenodd"/>
 <path d="m27.641 78.316c-0.16797 0-0.33203-0.042968-0.48828-0.12891l-6.9336-4.0078c-0.46875-0.26953-0.625-0.86719-0.35938-1.332 0.26953-0.46875 0.86719-0.62891 1.3359-0.35938l6.9375 4.0039c0.46875 0.26953 0.625 0.86719 0.35938 1.3359-0.17969 0.3125-0.50781 0.48828-0.84766 0.48828z" fill-rule="evenodd"/>
</svg>