<svg xmlns="http://www.w3.org/2000/svg" version="1.1" viewBox="-5.0 -10.0 110.0 135.0">
 <path d="m87.859 12.977c-0.41797-0.35937-1.0898 0.09375-0.90234 0.61719 1.4375 4.4102 0.90625 8.793-1.4492 12.027-5.0703 6.9492-15.949 6.1055-22.738 1.1758l0.89844-1.2344c1.4648-1.9414 0.99219-4.8906-0.98828-6.293l-0.84766-0.61719 2.3398-3.207c2.8008-4.1094-3.0273-8.3438-6.0703-4.4258l-2.3398 3.207-0.85156-0.62109c-1.9219-1.4688-4.9023-0.99219-6.2891 0.98828l-0.89844 1.2305c-4.9766-3.8203-8.0664-9.4258-8.0898-14.762 0.011719-0.42578-0.5-0.71875-0.86328-0.48438-7.5586 4.4766-13.211 12.238-15.16 20.809-0.10938 0.41016 0.32422 0.8125 0.72656 0.67188 5.0859-1.6094 11.371-0.38672 16.531 3.1836-1.8281 2.0195-1.6953 5.2188 0.57031 6.8477l0.85156 0.62109c-5.0898 6.9766-35.578 48.809-39.867 54.688-2.0156 2.7656-1.4062 6.6562 1.3594 8.6719l4.5547 3.3203c0.26172 0.19922 0.67578 0.11328 0.83203-0.17969 3.6367-6.4062 6.5586-13.195 8.7344-20.293l30.461-41.781 0.84375 0.61719c2.2344 1.6523 5.3516 0.80469 6.7031-1.5469 6.7656 4.9492 10.898 15.059 5.8359 22.008-2.3438 3.2188-6.3281 5.0586-10.938 5.0586-0.26953-0.023438-0.54297 0.13672-0.61719 0.40625-0.074218 0.24219 0.023438 0.50391 0.23438 0.64062 4.9414 3.207 10.527 4.7422 16.113 4.7422 28.766 0.09375 43.918-37.398 21.32-56.086zm-28.836-1.2852c1.2969-1.8672 4.4023-1.125 4.6992 1.1367 0.10938 0.69141-0.058594 1.3828-0.46875 1.9453l-2.3398 3.207-4.2305-3.082zm-29.992 8.5312c-1.3984 0-2.7695 0.15625-4.0781 0.48047 1.9688-7.5664 6.9805-14.449 13.582-18.633 0.375 5.3789 3.5586 10.887 8.5156 14.684l-1.3359 1.832c-2.3047-1.4883-4.5234-3.1328-6.5742-4.9922 1.7422 2.1016 3.8086 4.0625 5.9375 5.8672l-1.5586 2.1367c-2.375-1.4805-4.8398-2.8008-7.4023-3.8594 2.4062 1.375 4.6367 3 6.7656 4.7305l-1.3438 1.8438c-3.8477-2.668-8.3086-4.0898-12.508-4.0898zm-16.246 69.223c-1.293 2.9531-2.7383 5.8594-4.2969 8.6484l-4.0391-2.9453c-2.2578-1.6484-2.7578-4.8242-1.1094-7.082l6.7617-9.2773c2.1133-0.82031 4.5156-0.72266 6.5859 0.17969-1.1094 3.5859-2.4219 7.1094-3.9023 10.477zm4.4141-11.5c-1.8789-0.8125-3.9883-1.082-5.9961-0.66016l32.008-43.902 4.2305 3.082zm37.379-41.848c-1.0391 1.4727-3.2578 1.8359-4.7031 0.73828l-3.8477-2.8047c-0.86719-0.63281-3.082-2.2461-3.9219-2.8594-1.4844-1.0352-1.8242-3.2617-0.73047-4.6992l8.168-11.203c1.0352-1.4805 3.2578-1.8398 4.6953-0.74219l7.7695 5.6641c0.74219 0.53906 1.2148 1.3281 1.3398 2.2383 0.13672 0.87109-0.078125 1.7461-0.60156 2.4648zm-1.9492 28.223c4.1992-0.42969 7.793-2.3555 10.035-5.4375 5.457-7.4375 1.1914-18.297-6.082-23.602l5.5117-7.5586c7.2734 5.3047 18.922 6.0391 24.332-1.4297 2.2461-3.0781 2.9805-7.0859 2.1055-11.215 10.824 10.078 12.234 27.234 3.0039 39.898-9.2383 12.664-26 16.566-38.906 9.3438zm9.8203-1.1484c14.582 0.67969 27.848-9.8164 29.574-24.453 0.58203-4.6484 0.035156-9.4609-1.5781-13.945 9.1836 19.094-7.0195 41.285-27.996 38.398zm-10.148-37.957c2.3125-0.63281 4.6641-1.1211 7.0391-1.4414-2.2695 1.0391-4.6094 1.918-7 2.6328 0.050781 2.4922-0.066406 4.9922-0.36328 7.4688-0.42578-2.3594-0.67969-4.75-0.78125-7.1406-2.3125 0.63672-4.6602 1.125-7.0391 1.4414 2.2656-1.043 4.6094-1.918 7-2.6328-0.050781-2.4922 0.066406-4.9922 0.36328-7.4688 0.42578 2.3594 0.67969 4.7461 0.78125 7.1406z"/>
</svg>