<svg xmlns="http://www.w3.org/2000/svg" version="1.1" viewBox="-5.0 -10.0 110.0 135.0">
 <path d="m17.801 89.301c0.80078 0.5 1.6992 0.69922 2.5977 0.69922 1.8008 0 3.6016-0.89844 4.6016-2.6016l27-46.801c0.60156 0.5 1.1992 0.89844 1.6992 1.3984 3.1992 3.1016 5.6016 6.8008 7.1016 10.699 0.80078 2 1.3008 4 1.6016 6v0.20313c0.10156 0.19922 0.19922 0.39844 0.39844 0.5 0.19922 0.10156 0.39844 0.20312 0.59766 0.20312h0.19922c0.10156 0 0.10156 0 0.10156-0.10156h0.10156c7.1992-2.5 12.898-7.3984 16.699-13.898s5.1016-13.898 3.8984-21.398v-0.20312s0-0.10156-0.10156-0.10156c0-0.10156-0.10156-0.10156-0.10156-0.19922 0-0.10156-0.10156-0.10156-0.19922-0.19922-0.10156 0-0.10156-0.10156-0.19922-0.10156-0.10156 0-0.10156-0.10156-0.19922-0.10156-0.10156 0-0.10156 0-0.19922-0.10156h-0.19922-0.30469c-2 0.69922-4.1016 1.3008-6.1016 1.6016-3.1992 0.5-9.6016 0.89844-16.102-1.8984-2.5-1.1016-3.6016-2.1016-4.8984-3.3008-1.3008-1.1992-3-2.6992-6.3984-4.8008-2.1016-1.1992-12.398-7-14.5-4.1016-0.89844 1.3008 0.19922 2.5 1.5 4 1.5 1.6992 3.8984 4.3008 5.5 8.3984 0.60156 1.5 0.89844 3.1016 1.3008 4.8008 0.30078 1.5 0.69922 3 1.1992 4.5 0 0.10156 0.10156 0.10156 0.10156 0.19922l-28.602 49.5c-0.69922 1.1992-0.89844 2.6016-0.5 4 0.30469 1.4062 1.207 2.5078 2.4062 3.207zm60.398-62.402c1.4023-0.29688 2.8008-0.59766 4.1016-1.0977 0.80078 6.5-0.5 12.898-3.8008 18.602-3.3008 5.6992-8.1992 10-14.199 12.602-0.30078-1.3984-0.69922-2.6992-1.1016-4.1016 4.8984-2.1992 9-5.8984 11.699-10.602 2.7031-4.6992 3.9023-10 3.3008-15.402zm-34.301-4.5c-1.8008-4.5-4.1992-7.3008-5.8984-9.1016-0.30078-0.39844-0.69922-0.80078-1-1.1016 1.6992 0.10156 6.1016 1.6992 11.199 4.6992 3.3008 1.8984 4.8008 3.3008 6 4.5 1.3984 1.3008 2.6016 2.3984 5.5 3.6992 6.3008 2.8047 12.5 2.707 16.199 2.207 0.5 4.8984-0.60156 9.6992-3 14-2.5 4.3008-6.1016 7.6016-10.602 9.6016-1.6953-3.8008-4.0977-7.4023-7.1953-10.402-0.89844-0.89844-1.8984-1.6016-2.8008-2.3008-0.10156 0-0.10156-0.10156-0.19922-0.10156-0.10156-0.10156-0.19922-0.10156-0.30078-0.19922-2.3008-1.8008-4.5-3.3984-5.5-6-0.5-1.3984-0.80078-2.8008-1.1016-4.1992-0.19922-1.8984-0.59766-3.5977-1.3008-5.3008zm-26.098 60.801 27.898-48.199c1.1992 1.6992 2.8984 3 4.5 4.3008l-27.098 47c-0.80078 1.3984-2.7031 1.8984-4.1016 1.0977-0.69922-0.39844-1.1992-1.0977-1.3984-1.7969-0.30078-0.90234-0.20312-1.7031 0.19922-2.4023z"/>
</svg>