<svg xmlns="http://www.w3.org/2000/svg" version="1.1" viewBox="-5.0 -10.0 110.0 135.0">
 <path d="m60.938 62.5c-0.91406 0.011719-1.8164 0.22656-2.6406 0.625-1.2188-2.4727-1.3906-5.332-0.48438-7.9375 0.17188-0.55078 0.027344-1.1523-0.375-1.5625-0.95312-0.94531-1.4883-2.2344-1.4883-3.5781s0.53516-2.6328 1.4883-3.5781c0.27734-0.32031 0.41016-0.73438 0.375-1.1562v-16.859c0.011719-7.6562-2.2578-15.141-6.5156-21.5-0.28906-0.43359-0.77734-0.69141-1.2969-0.69141s-1.0078 0.25781-1.2969 0.69141c-4.2578 6.3594-6.5273 13.844-6.5156 21.5v16.859c-0.003906 0.41406 0.16016 0.81641 0.45312 1.1094 0.95312 0.94531 1.4883 2.2344 1.4883 3.5781s-0.53516 2.6328-1.4883 3.5781c-0.40234 0.41016-0.54688 1.0117-0.375 1.5625 0.875 2.6055 0.67188 5.4531-0.5625 7.9062-0.82812-0.37109-1.7305-0.55859-2.6406-0.54688-2.0547-0.007812-3.9844 0.99609-5.1562 2.6797-1.1719 1.6875-1.4414 3.8438-0.71875 5.7695 0.72266 1.9219 2.3438 3.3672 4.3398 3.8633 1.9922 0.5 4.1016-0.015625 5.6445-1.375h2.1406v9.9531c-1.625 1.8438-2.0195 4.4648-1.0078 6.707 1.0078 2.2383 3.2383 3.6758 5.6953 3.6758s4.6875-1.4375 5.6953-3.6758c1.0117-2.2422 0.61719-4.8633-1.0078-6.707v-9.9531h2.1406c1.543 1.3594 3.6523 1.875 5.6445 1.375 1.9961-0.49609 3.6172-1.9414 4.3398-3.8633 0.72266-1.9258 0.45312-4.082-0.71875-5.7695-1.1719-1.6836-3.1016-2.6875-5.1562-2.6797zm-15.438-7.4219c2.3984-3.0664 2.3203-7.3945-0.1875-10.375v-16.25c-0.007812-6.1992 1.6094-12.293 4.6875-17.672 3.0781 5.3789 4.6953 11.473 4.6875 17.672v16.25c-2.5078 2.9805-2.5859 7.3086-0.1875 10.375-0.76562 2.9258-0.51562 6.0273 0.70312 8.7969v0.1875h-1.3594c-0.53125-1.7227-2.0469-2.957-3.8438-3.125-1.7734 0.19141-3.2617 1.4219-3.7812 3.125h-1.3594v-0.1875c1.1992-2.7773 1.4258-5.875 0.64062-8.7969zm6.0625 13.672c0 3.0312-1.1719 4.6875-1.5625 4.6875s-1.5625-1.6562-1.5625-4.6875 1.1719-4.6875 1.5625-4.6875 1.5625 1.6562 1.5625 4.6875zm-3.125 7.3594c0.95312 0.60547 2.1719 0.60547 3.125 0v7.1875c-0.95312 0.60938-2.1719 0.60938-3.125 0zm-5.9062-5.7969c-0.44141 0-0.85938 0.1875-1.1562 0.51562-0.86328 0.96875-2.2344 1.3047-3.4453 0.84375-1.2109-0.46094-2.0117-1.625-2.0117-2.9219s0.80078-2.4609 2.0117-2.9219c1.2109-0.46094 2.582-0.125 3.4453 0.84375 0.29688 0.32812 0.71484 0.51562 1.1562 0.51562h2.875c-0.125 1.0391-0.125 2.0859 0 3.125zm7.4688 20.312c-1.7266 0-3.125-1.3984-3.125-3.125 0-0.46875 0.11328-0.92969 0.32812-1.3438 1.7422 0.96094 3.8516 0.96094 5.5938 0 0.21484 0.41406 0.32812 0.875 0.32812 1.3438 0 0.82812-0.32812 1.625-0.91406 2.2109-0.58594 0.58594-1.3828 0.91406-2.2109 0.91406zm10.938-18.75c-0.88281-0.007812-1.7227-0.38672-2.3125-1.0469-0.29688-0.32812-0.71484-0.51562-1.1562-0.51562h-2.875c0.125-1.0391 0.125-2.0859 0-3.125h2.875c0.44141 0 0.85938-0.1875 1.1562-0.51562 0.70703-0.79297 1.7656-1.1719 2.8164-1.0078 1.0469 0.16016 1.9414 0.84766 2.375 1.8164 0.42969 0.96875 0.33984 2.0938-0.24219 2.9805-0.58203 0.89062-1.5742 1.4219-2.6367 1.4141z"/>
</svg>