<svg xmlns="http://www.w3.org/2000/svg" version="1.1" viewBox="-5.0 -10.0 110.0 135.0">
 <path d="m99.062 19.996c-1.918-0.39062-3.3906-0.69141-7.5781-1.543-0.42969-0.98438-0.94141-1.9375-1.5352-2.8477l2.8008-6.8242c0.39453-0.96094-0.57031-1.9219-1.5273-1.5273l-6.8242 2.8008c-0.91016-0.59766-1.8633-1.1094-2.8516-1.5352-0.87109-4.2734-1.0859-5.3438-1.543-7.5781-0.20703-1.0156-1.543-1.2812-2.1211-0.41797-1.4688 2.1914-2.8711 4.2812-4.3047 6.4297-0.48438 0.011719-0.96484 0.039063-1.4531 0.082031l-4.7383-5.6562c-0.66797-0.79688-1.9688-0.39062-2.0664 0.64453l-0.6875 7.3398c-0.36719 0.20703-0.73047 0.42578-1.0859 0.65625-2.2891-0.93359-4.7227-1.918-7.1641-2.9102-0.96094-0.39062-1.9219 0.57812-1.5234 1.5352 0.88672 2.1367 1.293 3.1133 2.9688 7.1406-0.19922 0.3125-0.39062 0.62891-0.57031 0.95312l-7.3398 0.6875c-1.0352 0.097657-1.4414 1.3984-0.64453 2.0664l5.6523 4.7422c-0.10547 1.0938-0.11328 2.1836-0.03125 3.2617l-5.2578 5.2578c-0.35547 0.35547-0.44531 0.89844-0.22266 1.3516 0.88281 1.7812 1.8867 3.4609 3 5.0352l-29.461 29.457-1.3008-1.3008c-1.4727-1.4727-3.8672-1.4727-5.3398 0-1.4219 1.4219-1.4648 3.7031-0.14062 5.1836l-4.9883 4.9883c-1.5-1.3477-3.7695-1.2734-5.1836 0.14062-1.3398 1.3398-1.4727 3.4453-0.33984 4.9414-1.1172 0.44922-2.1367 1.1211-3.0117 1.9961-3.5391 3.5391-3.5391 9.2656 0 12.805 3.5273 3.5312 9.2734 3.5312 12.805 0 0.87109-0.87109 1.543-1.8906 1.9961-3.0117 1.5039 1.1367 3.6133 0.98828 4.9414-0.33984 1.4219-1.4219 1.4648-3.7031 0.14062-5.1836l4.9883-4.9883c1.5 1.3477 3.7695 1.2734 5.1836-0.14062 1.4766-1.4766 1.4766-3.8633 0-5.3398l-1.2969-1.2969 29.469-29.469c1.5742 1.1133 3.2539 2.1172 5.0352 3 0.44922 0.22266 0.99609 0.13672 1.3516-0.21875l5.2539-5.2539c1.0781 0.082031 2.1523 0.070313 3.2656-0.035156l4.7383 5.6484c0.66797 0.79688 1.9688 0.39062 2.0664-0.64453l0.6875-7.3398c0.37109-0.20703 0.73047-0.42578 1.0859-0.65625 2.2969 0.93359 4.5664 1.8555 7.1602 2.9102 0.96484 0.39062 1.9219-0.57813 1.5234-1.5352l-2.9688-7.1406c0.19922-0.3125 0.39062-0.62891 0.57031-0.94922l7.3398-0.6875c1.0352-0.097657 1.4414-1.3984 0.64453-2.0664l-5.6523-4.7422c0.046876-0.48438 0.074219-0.96875 0.082032-1.4531 2.0664-1.3828 4.207-2.8164 6.4258-4.3047 0.85938-0.57422 0.59766-1.9102-0.42188-2.1172zm-85.262 75.695c-2.6172 2.6172-6.8711 2.6172-9.4883 0-2.6211-2.6211-2.6211-6.8672 0-9.4883 0.88281-0.88281 1.9727-1.4922 3.1719-1.7773l8.0938 8.0977c-0.28906 1.1992-0.89453 2.2852-1.7773 3.168zm6.9375-3.3477c-0.55859 0.55859-1.4648 0.55859-2.0234 0l-11.051-11.051c-0.55859-0.55859-0.55859-1.4648 0-2.0234 0.55859-0.55859 1.4648-0.55859 2.0234 0l11.051 11.051c0.55469 0.55469 0.55469 1.4648 0 2.0234zm0.14453-5.1914-8.0312-8.0312 4.9727-4.9727 8.0312 8.0312zm10.164-5.1211c-0.55859 0.55859-1.4648 0.55859-2.0234 0l-11.051-11.051c-0.55859-0.55859-0.55859-1.4648 0-2.0234 0.55859-0.55859 1.4648-0.55859 2.0234 0l11.051 11.051c0.55859 0.55859 0.55859 1.4648 0 2.0234zm55.152-63.461c-2.9141-0.53906-4.2266-1.8516-4.7656-4.7656l8.0859-3.3203c-1.1016 2.6758-2.2227 5.4102-3.3203 8.0859zm-7.9297-14.414c0.10547 0.51953 0.65234 3.1992 0.70312 3.457-0.875-0.23828-1.7656-0.41406-2.668-0.52344 0.64453-0.96094 1.293-1.9258 1.9648-2.9336zm-10.875 0.87891 5.6172 6.6953c-1.832 2.332-3.6016 2.8828-6.4336 2.0078zm-9.2891 5.3008c1.1211 0.45703 2.1992 0.89453 3.2695 1.3281-0.66406 0.57813-1.2617 1.168-1.918 1.9297-0.75781-1.832-0.93359-2.25-1.3516-3.2578zm3.5312 8.3438c0.875 2.832 0.32422 4.6016-2.0078 6.4336-2.2266-1.8672-4.4609-3.7422-6.6953-5.6172zm-6.3008 11.688c0.5 2.168 1.3828 4.2422 2.6172 6.1328l-1.5898 3.8672c-1.7031-1.9688-3.2031-4.1641-4.4648-6.5664zm3.0469 11.254c1.1133-2.7109 2.2188-5.4023 3.3203-8.0859 2.9141 0.53906 4.2266 1.8516 4.7656 4.7656-2.918 1.1992-4.7578 1.9531-8.0859 3.3203zm-28.633 33.773-5.1367-5.1367 29.238-29.238c0.49219 0.60547 1 1.1914 1.5273 1.7578l-0.22656 0.55078c-0.39062 0.95312 0.5625 1.9258 1.5273 1.5273l0.55078-0.22656c0.56641 0.52734 1.1523 1.0352 1.7578 1.5273zm36.453-27.289c-2.4023-1.2617-4.6016-2.7617-6.5664-4.4648l3.8633-1.5859c1.8906 1.2383 3.9648 2.1172 6.1367 2.6211zm0.019531-7.1719 1.9883-0.81641c0.48828-0.19922 0.78125-0.70313 0.71875-1.2266-0.60938-4.9414-2.875-7.2031-7.8164-7.8164-0.52344-0.0625-1.0273 0.23047-1.2266 0.71875l-0.81641 1.9883c-1.2305-2.3633-1.875-4.9844-1.8828-7.6602l1.6445 1.3789c0.40625 0.33984 0.98828 0.36719 1.4219 0.066406 4.0898-2.8359 5.043-5.8906 3.293-10.551-0.1875-0.49609-0.67969-0.80469-1.207-0.75391l-2.1406 0.19922c1.1445-1.6367 2.5352-3.0273 4.1641-4.1602l-0.19922 2.1367c-0.050781 0.52734 0.25781 1.0195 0.75391 1.207 4.6523 1.75 7.7109 0.80469 10.551-3.293 0.30078-0.43359 0.27344-1.0156-0.066406-1.4219l-1.3789-1.6445c2.6367 0.007813 5.2539 0.62891 7.6602 1.8828l-1.9883 0.81641c-0.48828 0.19922-0.78125 0.70312-0.71875 1.2266 0.60938 4.9414 2.875 7.2031 7.8164 7.8164 0.53125 0.066406 1.0312-0.23438 1.2266-0.71875l0.81641-1.9883c0.26562 0.51172 0.50391 1.0352 0.71484 1.5703 0.003907 0.011719 0.007813 0.027344 0.015625 0.039063 0.73828 1.8789 1.1445 3.9297 1.1523 6.0508l-1.6445-1.3789c-0.40625-0.33984-0.98438-0.36719-1.4219-0.066406-4.0898 2.8359-5.043 5.8906-3.293 10.551 0.1875 0.49219 0.67969 0.80469 1.207 0.75391l2.1367-0.19922c-1.1406 1.6328-2.5312 3.0234-4.1602 4.1602l0.19922-2.1328c0.050781-0.52734-0.25781-1.0195-0.75391-1.207-4.6602-1.7539-7.7148-0.80078-10.551 3.293-0.30078 0.43359-0.27344 1.0156 0.066406 1.4219l1.3789 1.6445c-2.6758-0.011718-5.2969-0.65625-7.6602-1.8867zm14.285 6.1367-5.6172-6.6953c1.832-2.332 3.6016-2.8828 6.4336-2.0078zm9.2891-5.3047c-1.1211-0.45703-2.1992-0.89453-3.2695-1.3281 0.66406-0.58203 1.2617-1.168 1.9141-1.9297zm-3.5312-8.3438c-0.875-2.832-0.32422-4.6016 2.0078-6.4336l6.6953 5.6172zm6.6484-9.7266c-0.10937-0.90234-0.28516-1.793-0.52344-2.668 0.33984 0.070312 3.0508 0.62109 3.457 0.70312-1.0078 0.67578-1.9727 1.3242-2.9336 1.9648zm-14.402 6.918c2.5156-2.5156 2.5156-6.6055 0-9.1211-2.5195-2.5195-6.6016-2.5195-9.1211 0-2.5156 2.5156-2.5156 6.6055 0 9.1211s6.6055 2.5156 9.1211 0zm-7.4648-7.4648c1.6055-1.6055 4.2031-1.6055 5.8086 0 1.6055 1.6055 1.6055 4.2031 0 5.8086-1.6016 1.6016-4.207 1.6016-5.8086 0-1.6055-1.6055-1.6055-4.2031 0-5.8086z"/>
</svg>