<svg xmlns="http://www.w3.org/2000/svg" version="1.1" viewBox="-5.0 -10.0 110.0 135.0">
 <path d="m56.031 64.062 1.5625-2.2969c0.14844-0.25 0.22266-0.53516 0.21875-0.82812v-35.312c-0.019531-6.8164-2.3438-13.422-6.5938-18.75-0.29688-0.37109-0.74609-0.58594-1.2188-0.58594s-0.92188 0.21484-1.2188 0.58594c-4.25 5.3281-6.5742 11.934-6.5938 18.75v35.312c0.003906 0.30469 0.09375 0.60547 0.26562 0.85938l1.5625 2.2656h-0.78125c-1.2617-1.1055-2.9141-1.6562-4.5859-1.5273-1.6719 0.125-3.2227 0.91797-4.3047 2.1992-1.9023 2.5-1.6484 6.0273 0.58984 8.2305 2.2383 2.207 5.7656 2.4102 8.2383 0.47266h2.1406v9.9531c-1.2148 1.3164-1.8086 3.0898-1.625 4.8711 0.17969 1.7812 1.1172 3.4023 2.5742 4.4453 1.4531 1.043 3.2852 1.4141 5.0312 1.0156 1.7461-0.39844 3.2383-1.5273 4.0977-3.0977 7.3359 0.15625 13.406-5.6641 13.562-13s-5.6641-13.406-13-13.562zm-10.719-3.5938v-34.844c0.007812-5.418 1.6406-10.707 4.6875-15.188 3.043 4.4805 4.6758 9.7695 4.6875 15.188v34.844l-2.4062 3.5938h-4.5625zm10.156 12.969c2.1562 0 3.9062 1.75 3.9062 3.9062s-1.75 3.9062-3.9062 3.9062h-0.78125v-7.8125zm-3.9062 9.8594c-0.95312 0.60938-2.1719 0.60938-3.125 0v-9.8594h3.125zm-1.5625 7.3281c-1.7266 0-3.125-1.3984-3.125-3.125 0-0.46875 0.11328-0.92969 0.32812-1.3438 1.7422 0.96094 3.8516 0.96094 5.5938 0 0.21484 0.41406 0.32812 0.875 0.32812 1.3438 0 0.82812-0.32812 1.625-0.91406 2.2109-0.58594 0.58594-1.3828 0.91406-2.2109 0.91406zm6.25-3.125c-0.007812-1.0977-0.30469-2.1758-0.85938-3.125 3.8828 0 7.0312-3.1484 7.0312-7.0312s-3.1484-7.0312-7.0312-7.0312h-12.859c-0.44141 0-0.85938 0.1875-1.1562 0.51562-0.71875 0.80859-1.8086 1.1875-2.875 1-1.293-0.21484-2.3164-1.2109-2.5625-2.5-0.17188-0.92578 0.078125-1.875 0.6875-2.5938 0.59375-0.67188 1.4453-1.0586 2.3438-1.0586s1.75 0.38672 2.3438 1.0586c0.29688 0.32812 0.71484 0.51562 1.1562 0.51562h13c5.4414 0.007812 9.9102 4.3125 10.117 9.75 0.21094 5.4375-3.9102 10.074-9.3359 10.5z"/>
</svg>