<svg xmlns="http://www.w3.org/2000/svg" version="1.1" viewBox="-5.0 -10.0 110.0 135.0">
 <path d="m89.84 36.438-7.957-3.2891c-0.49609-2.1914-1.3516-4.2617-2.5508-6.1719l3.2969-7.9492c0.19531-0.47266 0.089844-1.0195-0.27344-1.3828s-0.91016-0.47266-1.3828-0.27344l-7.9414 3.293c-1.9141-1.207-3.9844-2.0664-6.1836-2.5664l-3.2812-7.9375c-0.19531-0.47656-0.66016-0.78516-1.1719-0.78516-0.51562 0-0.97656 0.30859-1.1719 0.78516l-3.2812 7.9375c-2.1992 0.5-4.2734 1.3594-6.1875 2.5664l-7.9414-3.2969c-0.47266-0.19531-1.0195-0.089844-1.3828 0.27344-0.36328 0.36328-0.47266 0.91016-0.27344 1.3828l3.2969 7.9492c-1.1992 1.9102-2.0547 3.9766-2.5508 6.1719l-7.957 3.2891c-0.47656 0.19531-0.78516 0.66016-0.78516 1.1719s0.30859 0.97656 0.78516 1.1719l7.9688 3.293c0.53906 2.3516 1.4766 4.5664 2.8242 6.5898l-22.539 22.539-0.023438-0.023438c-0.49609-0.49609-1.3008-0.49609-1.7969 0l-11.625 11.625c-0.49609 0.49609-0.49609 1.3008 0 1.7969l5.6562 5.6562c0.24609 0.24609 0.57422 0.37109 0.89844 0.37109 0.32422 0 0.64844-0.125 0.89844-0.37109l11.625-11.625c0.23828-0.23828 0.37109-0.5625 0.37109-0.89844 0-0.33594-0.13281-0.66016-0.37109-0.89844l-0.023437-0.023437 22.543-22.543c2.0195 1.3398 4.2305 2.2734 6.5781 2.8086l3.3008 7.9844c0.19531 0.47656 0.66016 0.78516 1.1719 0.78516 0.51562 0 0.97656-0.30859 1.1719-0.78516l3.3008-7.9844c2.1758-0.49609 4.2305-1.3477 6.125-2.5352l7.9805 3.3125c0.15625 0.066407 0.32422 0.097657 0.48828 0.097657 0.33203 0 0.65625-0.12891 0.89844-0.37109 0.36328-0.36328 0.47266-0.91016 0.27344-1.3828l-3.3086-7.9727c1.1953-1.8984 2.0508-3.957 2.5508-6.1406l7.9688-3.293c0.47656-0.19531 0.78516-0.66016 0.78516-1.1719 0-0.51172-0.30859-0.97656-0.78516-1.1719zm-12.293-11.785c-0.67578-0.79297-1.4062-1.5234-2.1992-2.2031l3.7578-1.5586-1.5625 3.7617zm-15.156-10.684 2.9609 7.1641h-5.9258l2.9609-7.1641zm-12.961 8.4844c-0.78906 0.67578-1.5234 1.4102-2.1992 2.2031l-1.5625-3.7617 3.7578 1.5586zm-3.5195 12.195v5.9258l-7.1641-2.9609 7.1641-2.9609zm-25.738 49.039-3.8594-3.8594 2.0781-2.0781 3.8594 3.8594zm-3.8711 3.8711-3.8594-3.8594 2.0781-2.0781 3.8594 3.8594zm7.7461-7.7461-3.8594-3.8594 2.0781-2.0781 3.8555 3.8555-2.0781 2.0781zm0.9375-6.8125 22.352-22.352c0.625 0.71875 1.293 1.3906 2.0156 2.0117l-22.352 22.352-2.0156-2.0156zm22.941-25.602c-0.89844-1.3242-1.5273-2.7695-2.0273-4.2656 0.03125 0 0.0625 0.019532 0.089843 0.019532 0.48047 0 0.95703-0.14062 1.3672-0.41797 0.68359-0.45703 1.0938-1.2227 1.0938-2.0469v-6.1562c0-0.82422-0.41016-1.5898-1.0938-2.0469-0.44531-0.29688-0.96484-0.375-1.4883-0.35156 0.5-1.5234 1.1328-2.9961 2.0469-4.3398 1.25-1.8438 2.8164-3.4102 4.6562-4.6641 1.3477-0.91797 2.8203-1.5547 4.3477-2.0586-0.03125 0.52734 0.046875 1.0508 0.34766 1.5 0.45703 0.68359 1.2227 1.0938 2.0469 1.0938h6.1562c0.82422 0 1.5898-0.41016 2.0469-1.0938 0.30078-0.44922 0.37891-0.97656 0.34766-1.5 1.5234 0.50391 3 1.1406 4.3477 2.0586 1.8398 1.2539 3.4062 2.8203 4.6562 4.6641 0.91406 1.3477 1.5469 2.8203 2.0469 4.3398-0.51953-0.027343-1.0391 0.050782-1.4883 0.35156-0.68359 0.45703-1.0938 1.2227-1.0938 2.0469v6.1562c0 0.82422 0.41016 1.5898 1.0938 2.0469 0.41016 0.27344 0.88672 0.41406 1.3672 0.41406 0.03125 0 0.0625-0.015626 0.089843-0.019532-0.5 1.4961-1.1289 2.9414-2.0312 4.2656-1.2539 1.8477-2.8281 3.418-4.6797 4.6719-1.3359 0.90625-2.7969 1.5312-4.3047 2.0312 0.019531-0.51172-0.0625-1.0195-0.35547-1.457-0.45703-0.68359-1.2227-1.0938-2.0469-1.0938h-6.1562c-0.82422 0-1.5898 0.41016-2.0469 1.0938-0.29297 0.4375-0.375 0.94531-0.35547 1.457-1.5078-0.5-2.9688-1.1289-4.3047-2.0312-1.8477-1.2539-3.4219-2.8242-4.6797-4.6719zm14.465 13.855-2.9609-7.1641h5.9258l-2.9609 7.1641zm12.926-8.4961c0.80078-0.67969 1.5391-1.418 2.2188-2.2148l1.5742 3.7891zm3.5508-12.184v-5.9258l7.1641 2.9609-7.1641 2.9609zm-16.477 2.1914c1.3281 0 2.6523-0.50391 3.6641-1.5156 2.0195-2.0195 2.0195-5.3047 0-7.3242-2.0195-2.0195-5.3047-2.0195-7.3242 0s-2.0195 5.3047 0 7.3242c1.0078 1.0078 2.3359 1.5156 3.6641 1.5156zm-1.8672-7.043c0.51562-0.51562 1.1914-0.77344 1.8672-0.77344s1.3516 0.25781 1.8672 0.77344c1.0312 1.0312 1.0312 2.7031 0 3.7344s-2.7031 1.0312-3.7344 0-1.0312-2.7031 0-3.7344z" fill-rule="evenodd"/>
</svg>