<svg xmlns="http://www.w3.org/2000/svg" version="1.1" viewBox="-5.0 -10.0 110.0 135.0">
 <path d="m66.539 62.5-3.1211 1.8789c-0.007813 0.003906-1.0664 0.625-2.2305 0.625-0.78125 0-1.4062-0.27734-1.9102-0.84375l-0.71875-0.80469-0.71094 0.8125c-0.29688 0.33594-1.1016 1.0312-1.6797 1.0312-0.10938 0-0.44922 0-0.81641-0.80078-0.54297-1.1719-0.23047-1.4805 0.52344-2.2266 0.59375-0.58594 1.4062-1.3906 1.4922-2.75l0.13281-2.168-1.6875 1.3672c-0.078125 0.0625-0.32031 0.20312-0.51172 0.20312-0.15625 0-0.30469-0.15625-0.45703-0.46484-0.25781-0.53125-0.16797-1.3242 0.21484-1.9375 0.33594-0.53125 0.73438-0.74609 1.168-0.47266l1.3359 0.82812 0.11719-1.5703c0.011718-0.13672 0.21484-3.3008-2.5234-7.543l0.054688-27.18-5.2109-15.414-5.2109 15.414v0.15625l0.054688 27.023c-2.7422 4.2422-2.5391 7.4062-2.5234 7.543l0.11719 1.5703 1.3359-0.82812c0.4375-0.27344 0.83203-0.058594 1.168 0.47266 0.38281 0.61328 0.47266 1.4062 0.21484 1.9375-0.14844 0.30859-0.30078 0.46484-0.45703 0.46484-0.1875 0-0.43359-0.14062-0.52344-0.20703l-1.6602-1.2812 0.11719 2.0859c0.082032 1.3555 0.89844 2.1602 1.4922 2.75 0.75391 0.74609 1.0625 1.0547 0.52344 2.2266-0.37109 0.80078-0.70703 0.80078-0.82031 0.80078-0.57812 0-1.3828-0.69531-1.6797-1.0312l-0.71094-0.80469-0.71484 0.79688c-0.50391 0.56641-1.1289 0.84375-1.9102 0.84375-1.1602 0-2.2227-0.61719-2.2305-0.625l-3.1211-1.8789 7.9609 14.02 0.80469-1.5781c0.75391-1.4727 1.7422-2.1875 3.0156-2.1875 0.96875 0 1.875 0.41016 2.3711 0.68359l0.10547 11.195-2.2812 2.7227 4.5625 7.5742 4.5625-7.5781-2.2812-2.7227 0.10547-11.191c0.49609-0.27344 1.4062-0.68359 2.375-0.68359 1.2734 0 2.2617 0.71875 3.0156 2.1875l0.80469 1.5781zm-13.098-7.0938c-0.73438 1.1758-0.86328 2.6602-0.32031 3.7812 0.44922 0.92969 1.0625 1.3125 1.5742 1.457-0.054687 0.054688-0.10937 0.10938-0.16406 0.16406-0.74609 0.73828-1.8398 1.8242-1.1094 3.8867l-0.66797-0.14453-2.7539-8.3867-2.75 8.3906-0.66406 0.14453c0.73047-2.0625-0.36719-3.1484-1.1133-3.8867-0.058594-0.054688-0.11328-0.11328-0.16406-0.16406 0.51172-0.14844 1.125-0.53125 1.5742-1.457 0.54297-1.1211 0.41797-2.6055-0.32031-3.7812-0.55859-0.89062-1.3672-1.4258-2.2422-1.4883 0.1875-1.1641 0.72656-3.1133 2.2773-5.4414l0.16406-0.24219-0.058594-27.441 3.2969-9.7656 3.3008 9.7656-0.058593 27.441 0.16406 0.24219c1.5664 2.3516 2.1016 4.2891 2.2852 5.4375-0.87891 0.058593-1.6914 0.59375-2.25 1.4883zm8.4258 11.461-3.3008 5.8125c-1.2383-1.4805-2.6953-1.8359-3.8047-1.8359-2.0703 0-4.2734 1.5586-4.2734 1.5586l-0.125 12.91 1.8594 2.2188-2.2227 3.6992-2.2227-3.6953 1.8594-2.2188-0.125-12.91s-2.2031-1.5586-4.2695-1.5586c-1.1094 0-2.5703 0.35156-3.8047 1.8359l-3.3008-5.8125c1.5664 0.28906 2.5391-0.23828 3.2852-0.78125 0.53906 0.4375 1.332 0.91797 2.2109 0.98828l5.0898-0.89062 1.2773-3.8984 1.2812 3.8984 5.0898 0.89062c0.875-0.070313 1.6719-0.55078 2.2109-0.98828 0.74609 0.54297 2.2305 0.99609 3.2852 0.77734z"/>
</svg>