<svg xmlns="http://www.w3.org/2000/svg" xmlns:xlink="http://www.w3.org/1999/xlink" version="1.1" x="0px" y="0px" viewBox="0 0 32 40" enable-background="new 0 0 32 32" xml:space="preserve"><g><path d="M30.21,5.285L28.465,3.54c-0.001-0.001-0.001-0.002-0.002-0.003s-0.002-0.001-0.003-0.002L26.715,1.79   c-0.195-0.195-0.512-0.195-0.707,0c-1.032,1.032-2.405,1.601-3.865,1.601h-1.023c-0.276,0-0.5,0.224-0.5,0.5   c0,2.12-0.826,4.114-2.325,5.613l-0.15,0.15l-1.747,1.747c-0.195,0.195-0.195,0.512,0,0.707l0.521,0.521L9.76,19.785l-0.083-0.083   c-0.195-0.195-0.512-0.195-0.707,0L7.222,21.45c-0.195,0.195-0.195,0.512,0,0.707l0.083,0.083l-4.889,4.888   c-0.677,0.678-0.676,1.779,0,2.455c0.328,0.328,0.764,0.509,1.228,0.509c0.463,0,0.899-0.181,1.228-0.509l4.888-4.889l0.083,0.083   c0.098,0.098,0.226,0.146,0.354,0.146s0.256-0.049,0.354-0.146l1.748-1.748c0.195-0.195,0.195-0.512,0-0.707l-0.083-0.083   l7.156-7.157l0.521,0.521c0.098,0.098,0.226,0.146,0.354,0.146s0.256-0.049,0.354-0.146l1.747-1.747l0.15-0.15   c1.499-1.499,3.493-2.325,5.613-2.325c0.276,0,0.5-0.224,0.5-0.5V9.857c0-1.46,0.568-2.833,1.601-3.865   C30.405,5.797,30.405,5.48,30.21,5.285z M21.605,4.391h0.537c1.56,0,3.035-0.548,4.205-1.554l1.054,1.054l-7.157,7.157   l-1.043-1.043C20.648,8.464,21.49,6.495,21.605,4.391z M4.164,28.877c-0.277,0.279-0.765,0.277-1.041,0   c-0.287-0.287-0.286-0.754,0-1.041l4.889-4.888l1.04,1.04L4.164,28.877z M10.196,23.718l-0.081-0.081   c-0.001-0.001-0.001-0.002-0.002-0.003l-1.747-1.747c-0.001-0.001-0.002-0.001-0.003-0.002l-0.081-0.081l1.041-1.041l0.083,0.083   l1.748,1.748l0.083,0.083L10.196,23.718z M11.508,21.533l-1.041-1.041l7.157-7.156l1.04,1.04L11.508,21.533z M20.245,14.543   l-0.521-0.521l-1.747-1.747l-0.521-0.521l1.04-1.04l2.788,2.788L20.245,14.543z M27.609,9.857v0.537   c-2.104,0.115-4.073,0.957-5.614,2.404l-1.043-1.043l7.157-7.157l1.054,1.054C28.157,6.822,27.609,8.298,27.609,9.857z"/></g></svg>