<svg xmlns="http://www.w3.org/2000/svg" xmlns:xlink="http://www.w3.org/1999/xlink" version="1.1" x="0px" y="0px" viewBox="0 0 504 630" style="enable-background:new 0 0 504 504;" xml:space="preserve"><path d="M449.348,54.651c0.828,0.828,1.252,1.977,1.159,3.145c-1.04,13.135-5.991,24.219-14.716,32.942  c-0.78,0.781-1.805,1.171-2.828,1.171s-2.048-0.391-2.828-1.172c-1.563-1.562-1.563-4.095,0-5.657  c6.235-6.235,10.185-13.952,11.774-22.991c-9.038,1.59-16.754,5.539-22.991,11.775c-1.561,1.562-4.096,1.562-5.656,0  c-1.563-1.562-1.563-4.095,0-5.657c8.725-8.724,19.808-13.675,32.941-14.716C447.381,53.392,448.521,53.824,449.348,54.651z   M397.405,117.811c-6.236,6.236-13.953,10.185-22.991,11.775c1.59-9.038,5.539-16.754,11.774-22.991  c1.563-1.562,1.563-4.095,0-5.657c-1.563-1.562-4.096-1.562-5.656,0c-8.725,8.724-13.676,19.808-14.716,32.942  c-0.093,1.167,0.331,2.316,1.159,3.145c0.753,0.753,1.771,1.171,2.828,1.171c0.104,0,0.21-0.004,0.315-0.013  c13.136-1.041,24.219-5.992,32.942-14.716c1.563-1.562,1.563-4.095,0-5.657C401.499,116.249,398.966,116.249,397.405,117.811z   M503.165,115.691c0.716,0.927,0.99,2.12,0.75,3.266c-0.24,1.146-0.97,2.129-1.998,2.691c-6.398,3.494-12.926,5.626-19.526,6.42  c-2.078,5.063-4.637,9.862-7.665,14.369c7.473,8.473,11.818,18.855,12.905,30.926c0.106,1.181-0.316,2.349-1.155,3.187  c-0.753,0.754-1.772,1.172-2.828,1.172c-0.119,0-0.239-0.005-0.358-0.016c-12.072-1.087-22.455-5.432-30.927-12.906  c-9.109,6.107-19.182,10.187-29.583,12.228c-0.701,11.286-4.972,21.71-12.745,31.021c-0.76,0.91-1.885,1.437-3.07,1.437  s-2.311-0.526-3.07-1.437c-7.773-9.311-12.043-19.734-12.745-31.02c-5.731-1.124-11.356-2.883-16.783-5.242l-37.275,37.275  c-3.047,3.047-7.05,4.571-11.053,4.571c-2.716,0-5.425-0.719-7.843-2.123l-134.24,134.24c3.472,5.98,2.668,13.78-2.448,18.895  L50.881,495.27c-5.63,5.63-13.114,8.73-21.075,8.73c-7.962,0-15.446-3.101-21.075-8.73C3.101,489.641,0,482.156,0,474.194  c0-7.961,3.101-15.445,8.73-21.075l130.625-130.625c5.115-5.117,12.915-5.921,18.895-2.448l134.24-134.24  c-3.472-5.98-2.667-13.781,2.448-18.896l37.243-37.243c-2.35-5.383-4.126-11.01-5.261-16.818  c-11.266-0.711-21.672-4.98-30.97-12.741c-0.91-0.76-1.437-1.885-1.437-3.071s0.526-2.311,1.437-3.071  c9.298-7.761,19.704-12.03,30.97-12.741c2.073-10.607,6.228-20.639,12.263-29.605c-7.463-8.469-11.803-18.845-12.889-30.908  c-0.106-1.181,0.316-2.349,1.155-3.187c0.838-0.839,2.009-1.264,3.187-1.156c12.071,1.087,22.454,5.432,30.927,12.905  c4.504-3.026,9.3-5.584,14.359-7.661c0.793-6.602,2.936-13.131,6.431-19.53c0.562-1.027,1.545-1.758,2.69-1.998  c1.148-0.24,2.34,0.034,3.267,0.75c5.598,4.327,10.073,9.28,13.419,14.804c18.11-1.161,35.835,3.68,50.646,13.625  c8.471-7.467,18.849-11.808,30.915-12.895c1.178-0.107,2.348,0.317,3.187,1.156c0.839,0.838,1.262,2.006,1.155,3.187  c-1.087,12.065-5.427,22.444-12.895,30.914c9.946,14.81,14.789,32.536,13.625,50.646  C493.885,105.617,498.838,110.092,503.165,115.691z M325.394,97.037c0-2.586,0.128-5.152,0.365-7.694  c-7.332,0.749-14.241,3.322-20.63,7.694c6.389,4.372,13.298,6.945,20.63,7.694C325.522,102.189,325.394,99.623,325.394,97.037z   M458.958,34.192c1.961,1.626,3.861,3.344,5.683,5.166c1.822,1.822,3.541,3.722,5.167,5.683c4.652-5.714,7.738-12.405,9.163-20.013  C471.363,26.455,464.672,29.54,458.958,34.192z M344.117,45.041c1.627-1.959,3.345-3.859,5.168-5.682  c1.824-1.824,3.73-3.533,5.69-5.161c-5.715-4.656-12.409-7.743-20.02-9.169C336.38,32.637,339.465,39.328,344.117,45.041z   M54.949,479.889l-30.838-30.838l-9.725,9.725C10.269,462.895,8,468.37,8,474.194s2.269,11.3,6.387,15.419  c4.119,4.118,9.595,6.387,15.419,6.387s11.3-2.269,15.419-6.387L54.949,479.889z M89.542,445.296  c-0.566,0.017-1.129,0.026-1.69,0.026c-17.337,0-32.442-8.165-43.423-16.588l-14.661,14.661l30.838,30.838L89.542,445.296z   M111.801,423.037c-0.566,0.017-1.129,0.026-1.69,0.026c-17.337,0-32.442-8.165-43.423-16.588l-16.553,16.553  c12.144,9.101,29.483,17.564,48.694,12.982L111.801,423.037z M134.059,400.778c-0.566,0.017-1.129,0.026-1.69,0.026  c-17.337,0-32.442-8.165-43.423-16.588L72.392,400.77c12.142,9.1,29.478,17.563,48.694,12.982L134.059,400.778z M156.317,378.521  c-0.566,0.017-1.129,0.026-1.69,0.026c-17.337,0-32.442-8.165-43.423-16.588l-16.552,16.552c12.142,9.1,29.477,17.564,48.693,12.982  L156.317,378.521z M159.4,370.285l-28.261-28.262l-14.23,14.23C127.731,364.363,142.679,371.966,159.4,370.285z M175.85,348.197  l-20.047-20.047c-1.487-1.487-3.441-2.23-5.396-2.23s-3.908,0.743-5.396,2.23l-8.217,8.217l30.838,30.838l8.217-8.217  C178.824,356.013,178.824,351.173,175.85,348.197z M312.157,206.233l-14.39-14.39L164.287,325.322l14.391,14.391L312.157,206.233z   M366.813,168.025c-6.276-3.547-12.187-7.969-17.528-13.31c-5.286-5.286-9.735-11.18-13.329-17.509l-35.362,35.361  c-2.975,2.975-2.975,7.815,0,10.791l20.047,20.046c2.976,2.975,7.814,2.976,10.792,0L366.813,168.025z M414.661,178.204  c-2.56,0.241-5.129,0.364-7.698,0.364c-2.569,0-5.138-0.123-7.698-0.364c0.744,7.346,3.318,14.268,7.698,20.667  C411.343,192.472,413.917,185.55,414.661,178.204z M469.802,149.025c-1.628,1.96-3.337,3.866-5.162,5.69  c-1.83,1.83-3.733,3.543-5.688,5.162c5.715,4.655,12.408,7.742,20.018,9.168C477.545,161.434,474.458,154.741,469.802,149.025z   M493.618,116.801c-6.275-6.696-13.803-10.995-22.435-12.803c-2.162-0.453-3.548-2.573-3.095-4.735  c0.453-2.161,2.569-3.551,4.735-3.095c2.657,0.557,5.218,1.32,7.691,2.266c0.387-19.966-7.29-39.178-21.531-53.418  c-14.242-14.242-33.458-21.92-53.419-21.532c0.946,2.474,1.71,5.035,2.267,7.692c0.453,2.162-0.933,4.282-3.095,4.735  c-2.162,0.454-4.282-0.933-4.735-3.095c-1.808-8.631-6.106-16.158-12.803-22.435c-3.613,8.436-4.53,17.055-2.722,25.687  c0.453,2.162-0.933,4.282-3.095,4.735c-0.276,0.058-0.553,0.086-0.824,0.086c-1.854,0-3.516-1.295-3.911-3.181  c-0.507-2.422-0.827-4.84-0.977-7.252c-7.673,3.599-14.635,8.465-20.729,14.559c-13.896,13.895-21.548,32.37-21.548,52.021  s7.652,38.126,21.548,52.021c28.686,28.685,75.357,28.685,104.043,0c6.093-6.092,10.959-13.055,14.559-20.729  c-2.412-0.15-4.83-0.468-7.252-0.976c-2.162-0.453-3.548-2.573-3.095-4.735c0.452-2.162,2.562-3.55,4.735-3.095  C476.563,121.331,485.184,120.415,493.618,116.801z"/></svg>