<svg xmlns="http://www.w3.org/2000/svg" viewBox="0 0 512 640" x="0px" y="0px"><title>4058 - Axe</title><g data-name="4058 - Axe"><path d="M276,514H236a8,8,0,0,1-8-8V146a8,8,0,0,1,8-8h40a8,8,0,0,1,8,8V506A8,8,0,0,1,276,514Zm-32-16h24V154H244Z"/><path d="M296,154H216a8,8,0,0,1-8-8V66a8,8,0,0,1,8-8h80a8,8,0,0,1,8,8v80A8,8,0,0,1,296,154Zm-72-16h64V74H224Z"/><path d="M296,154a8,8,0,0,1-5.66-2.34l-80-80a8,8,0,0,1,11.32-11.32l80,80A8,8,0,0,1,296,154Z"/><path d="M216,154a8,8,0,0,1-5.66-13.66l80-80a8,8,0,1,1,11.32,11.32l-80,80A8,8,0,0,1,216,154Z"/><path d="M276,74H236a8,8,0,0,1-8-8V26a8,8,0,0,1,2.34-5.66l20-20a8,8,0,0,1,11.32,0l20,20A8,8,0,0,1,284,26V66A8,8,0,0,1,276,74ZM244,58h24V29.31l-12-12-12,12Z"/><path d="M356,234a8,8,0,0,1-7.81-9.74l5.15-23.17A46.91,46.91,0,0,0,307.54,144H296a8,8,0,0,1,0-16h11.54A62.92,62.92,0,0,1,369,204.56l-1.5,6.77,6.83-3.42a97.17,97.17,0,0,0,0-173.82L366.14,30a62.39,62.39,0,0,1-12.71,39A62.4,62.4,0,0,1,303.2,94H296a8,8,0,0,1,0-16h7.2a46.52,46.52,0,0,0,37.45-18.66,46.53,46.53,0,0,0,7.66-41.14,8,8,0,0,1,11.27-9.36l21.86,10.94a113.16,113.16,0,0,1,0,202.44l-21.86,10.94A8.07,8.07,0,0,1,356,234Z"/><path d="M156,234a8.1,8.1,0,0,1-3.58-.84l-21.86-10.94a113.16,113.16,0,0,1,0-202.44L152.42,8.84a8,8,0,0,1,11.27,9.36,46.53,46.53,0,0,0,7.66,41.14A46.51,46.51,0,0,0,208.8,78H216a8,8,0,0,1,0,16h-7.2a62.4,62.4,0,0,1-50.23-25A62.39,62.39,0,0,1,145.86,30l-8.14,4.07a97.16,97.16,0,0,0,0,173.82l6.82,3.42-1.5-6.77A62.92,62.92,0,0,1,204.46,128H216a8,8,0,0,1,0,16H204.46a46.91,46.91,0,0,0-45.8,57.09l5.15,23.17A8,8,0,0,1,156,234Z"/></g></svg>