<svg xmlns="http://www.w3.org/2000/svg" version="1.1" viewBox="-5.0 -10.0 110.0 135.0">
 <path d="m58.418 30.895-1.0664 0.089844-0.60547 0.88281c-12.188 17.727-13.633 19.168-30.902 30.891l-0.57031 0.38672-20.273 31.855 31.859-20.273 0.39062-0.57031c11.719-17.27 13.16-18.715 30.887-30.902l0.88281-0.60547 0.089844-1.0664c0.089844-1.2461 0.38281-2.4727 0.85938-3.625 0.23438-0.56641 0.52344-1.1055 0.86328-1.6172 0.37891 2.0039 0.71484 4.7812 0.92188 6.4883 0.49609 4.0859 0.69531 5.5469 1.2383 6.4414l2.6953 4.4336 1.168-4.1523h-0.003907c0.62109 0.27344 1.2891 0.4375 1.9648 0.48438l8.3164 0.53906-6.7031-4.4922c-0.70703-1.8555-1.2969-3.7578-1.7656-5.6875-1.3516-4.9844-2.2773-8.1094-3.6875-9.5234l-0.60156-0.60156c0.027344-0.003906 0.054688-0.011719 0.085938-0.015625l0.92969-0.14844 0.54688-0.76172h-0.003906c4.5117-6.2891 10.016-11.809 16.293-16.34l1.2852-0.91797-0.13672-0.48438h0.003906c1.1484-0.4375 1.8125-1.6445 1.5703-2.8516l-0.62109-3.0781-3.0781-0.62109c-1.207-0.24219-2.4102 0.42188-2.8516 1.5703l-0.48438-0.13672-0.92187 1.2891c-4.5273 6.2773-10.043 11.781-16.336 16.293l-0.76172 0.54688-0.14844 0.92188c-0.003906 0.03125-0.011719 0.058594-0.015625 0.089844l-0.60156-0.60156c-1.4141-1.4141-4.5391-2.3359-9.5234-3.6875-1.6172-0.4375-4.9062-1.332-5.6211-1.6914l-4.4258-6.6016 0.41016 8.1328c0.042969 0.67969 0.20703 1.3477 0.48047 1.9688l-4.168 1.1641 4.4453 2.6992c0.89453 0.54688 2.3555 0.74219 6.4766 1.2422 1.6992 0.20703 4.4727 0.54297 6.4609 0.91797-0.51172 0.33594-1.0508 0.625-1.6172 0.86328-1.1562 0.47656-2.3828 0.76953-3.6289 0.86328zm9.8086 6.3281v-0.003906c-0.55859 1.3438-0.89453 2.7617-1.0039 4.207l-0.015625 0.17188-0.14062 0.097656c-18.008 12.383-19.473 13.848-31.383 31.398l-0.16797 0.24609-20.676 13.156 53.684-53.684 1.4805 1.4844c-0.73438 0.88281-1.332 1.8672-1.7773 2.9219zm8.6133 3.668c1.0781 3.9844 1.6562 5.8711 2.2031 6.5l0.082031 0.09375 1.1133 0.74609-1.3203-0.085938c-0.66797-0.058593-1.3164-0.26953-1.8906-0.61719l-1.4062-0.79688-0.28906 1.2266c-0.019531 0.082031-0.039062 0.16406-0.0625 0.24219l-0.22656 0.80469-0.43359-0.71484c-0.34375-0.56641-0.58203-2.4336-0.97656-5.6875h-0.003906c-0.27344-2.8008-0.72266-5.5781-1.3398-8.3242l0.83203-2.5859 0.51953 0.51953c1.0742 1.0742 2.0039 4.2734 3.1992 8.6797zm13.469-33.812c0.14844-0.15234 0.36328-0.21484 0.56641-0.17188l1.8477 0.37109 0.37109 1.8477c0.042969 0.20312-0.019531 0.41797-0.16797 0.56641-0.097656 0.089844-0.21484 0.15234-0.34375 0.17578l-2.4492-2.4492c0.023438-0.12891 0.085938-0.24609 0.17578-0.33984zm-18.695 18.762 0.023438-0.14844 0.125-0.089844h-0.003907c6.4609-4.6289 12.125-10.281 16.773-16.727l0.14844-0.20703 0.035156 0.011719 2.6055 2.6094 0.007813 0.035157-0.20703 0.14844 0.003906-0.003906c-6.4453 4.6484-12.098 10.316-16.73 16.773l-0.085937 0.12109-0.14844 0.023438v0.003906c-0.44141 0.070313-0.875 0.19922-1.2852 0.37891l-1.6445-1.6445c0.17969-0.41016 0.30859-0.84375 0.38281-1.2852zm-1.8008 2.543 0.42188 0.41797 1.3828 1.3828-0.74219 2.3047-3.3672-3.3711zm-12.418-2.0156c-3.2539-0.39453-5.1211-0.63281-5.6875-0.97656l-0.71484-0.43359 2.2734-0.57812-0.79297-1.4062c-0.34766-0.57422-0.55859-1.2227-0.61719-1.8906l-0.066407-1.3125 0.80859 1.207 0.10938 0.089844c0.5625 0.46094 2.3477 0.99609 6.4062 2.0938 4.4062 1.1953 7.6055 2.125 8.6836 3.2031l0.51562 0.51562-2.582 0.82812h-0.003907c-2.7461-0.61328-5.5273-1.0625-8.332-1.3398zm8.3125 3.625 1.4805 1.4844-53.684 53.684 13.156-20.676 0.24609-0.16797c17.551-11.91 19.016-13.375 31.395-31.383l0.097657-0.14062 0.17187-0.015625c1.4492-0.10938 2.8711-0.44531 4.2148-1.0039 1.0547-0.44531 2.043-1.043 2.9219-1.7812z"/>
</svg>