<svg xmlns="http://www.w3.org/2000/svg" xmlns:xlink="http://www.w3.org/1999/xlink" version="1.1" x="0px" y="0px" viewBox="0 0 64 80" style="enable-background:new 0 0 64 64;" xml:space="preserve"><path d="M63.79,22.63c-0.02-0.17-0.13-0.32-0.28-0.39c-0.16-0.07-0.34-0.06-0.48,0.04c-1.03,0.69-2.15,1.26-3.42,1.45  c-0.06-0.01-0.11,0.01-0.17,0.02c-2.21,0.26-4.85-0.67-8.15-4.24c0.63-0.03,1.26-0.27,1.75-0.76c1.02-1.02,1.02-2.69,0-3.71  l-0.1-0.1l3.39-0.67c0.22-0.04,0.38-0.23,0.4-0.46l0.34-6.3c0.01-0.14-0.04-0.28-0.14-0.37l-0.08-0.08c-0.1-0.1-0.23-0.15-0.37-0.14  l-6.3,0.34c-0.23,0.01-0.41,0.18-0.46,0.4l-0.67,3.39l-0.1-0.1c-1.02-1.02-2.69-1.02-3.71,0c-0.48,0.48-0.73,1.11-0.76,1.75  c-3.57-3.3-4.51-5.94-4.24-8.15c0.02-0.05,0.02-0.11,0.02-0.16c0.19-1.27,0.77-2.4,1.45-3.43c0.09-0.14,0.11-0.32,0.04-0.48  c-0.07-0.16-0.22-0.26-0.39-0.28c-6.4-0.78-11.69,0.62-15.31,4.05c-3.73,3.53-5.46,9.14-5,16.24c0.01,0.14,0.08,0.27,0.19,0.36  c0.09,0.07,0.19,0.1,0.3,0.1c0.03,0,0.06,0,0.09-0.01l4-0.71l1.89,1.05c0.18,0.1,0.41,0.08,0.57-0.06c2.87-2.58,6.08-2.28,9.09,0.81  l-2.76,2.76c-1.02-0.69-2.42-0.59-3.32,0.31c-0.9,0.9-1.01,2.3-0.31,3.32L4.76,54.46c-1.01-0.66-2.45-0.56-3.32,0.31  c-0.9,0.9-1.01,2.3-0.31,3.32l-0.13,0.13c-1.32,1.32-1.31,3.46,0,4.78C1.63,63.65,2.48,64,3.37,64c0.9,0,1.75-0.35,2.39-0.99  l0.13-0.13c0.43,0.29,0.94,0.46,1.47,0.46c0.7,0,1.36-0.27,1.85-0.77c0.5-0.5,0.77-1.15,0.77-1.85c0-0.53-0.16-1.04-0.46-1.47  l4.64-4.64l0,0c0,0,0,0,0,0l2.27-2.27c0,0,0,0,0,0c0,0,0,0,0,0l19.12-19.12c0.44,0.3,0.96,0.46,1.47,0.46  c0.67,0,1.34-0.26,1.85-0.77c0.9-0.9,1.01-2.31,0.31-3.33l2.76-2.76c3.09,3.01,3.38,6.23,0.81,9.09c-0.14,0.16-0.17,0.39-0.06,0.57  l1.05,1.89l-0.71,4c-0.02,0.14,0.01,0.28,0.1,0.39c0.09,0.11,0.22,0.18,0.36,0.19c0.75,0.05,1.48,0.07,2.19,0.07  c6.06,0,10.89-1.74,14.05-5.08C63.17,34.31,64.57,29.02,63.79,22.63z M50.61,8.23l5.45-0.29l-0.29,5.45l-3.66,0.72l-2.21-2.21  L50.61,8.23z M45.94,11.66c0.32-0.32,0.74-0.48,1.16-0.48c0.42,0,0.84,0.16,1.16,0.48l4.08,4.08c0.64,0.64,0.64,1.68,0,2.32  c-0.64,0.64-1.68,0.64-2.32,0l-4.08-4.08C45.3,13.33,45.3,12.3,45.94,11.66z M25.23,19.31l-3.22,0.57  c-0.32-6.53,1.31-11.68,4.73-14.91c2.79-2.63,6.65-3.99,11.31-3.99c0.79,0,1.6,0.04,2.44,0.12c-0.56,0.97-0.94,1.92-1.12,2.87  C30.42,5.31,25.3,10.87,25.23,19.31z M27.7,20.26l-1.48-0.82C26.24,8.84,34.1,5.82,39.24,4.99c-0.14,3.04,1.72,6.06,5.63,9.36  l-6.99,6.99C34.63,18.02,30.87,17.61,27.7,20.26z M5.07,62.31c-0.9,0.9-2.48,0.91-3.38,0c-0.93-0.93-0.94-2.45,0-3.39l0.1-0.1  l3.39,3.39L5.07,62.31z M8.53,61.87c-0.62,0.62-1.7,0.62-2.32,0c0,0,0,0,0,0c0,0,0,0,0,0l-4.08-4.08c0,0,0,0,0,0c0,0,0,0,0,0  c-0.64-0.64-0.63-1.68,0-2.31c0.31-0.31,0.72-0.48,1.16-0.48c0.44,0,0.85,0.17,1.15,0.48c0,0,0,0,0,0c0,0,0,0,0,0l4.08,4.08  c0,0,0,0,0,0c0,0,0,0,0,0c0.31,0.31,0.48,0.72,0.48,1.16C9.01,61.15,8.84,61.56,8.53,61.87z M8.88,58.51l-3.39-3.39l4.26-4.26  l3.39,3.39L8.88,58.51z M13.84,53.55l-3.39-3.39l1.57-1.57l3.39,3.39L13.84,53.55z M16.1,51.28l-3.39-3.39l5.84-5.84l3.39,3.39  L16.1,51.28z M22.64,44.75l-3.39-3.39l1.57-1.57l3.39,3.39L22.64,44.75z M24.9,42.48l-3.39-3.39l9.94-9.94l3.39,3.39L24.9,42.48z   M38.2,32.2c-0.64,0.64-1.67,0.64-2.31,0c0,0,0-0.01,0-0.01c0,0-0.01,0-0.01-0.01l-4.07-4.07c0,0,0-0.01-0.01-0.01c0,0,0,0-0.01,0  c-0.63-0.64-0.63-1.67,0.01-2.31c0.32-0.32,0.74-0.48,1.16-0.48c0.36,0,0.72,0.13,1.01,0.36c0.02,0.06,0.06,0.11,0.1,0.16  c0.06,0.06,0.12,0.09,0.19,0.11l3.78,3.78c0.02,0.07,0.06,0.14,0.11,0.19c0.05,0.05,0.1,0.08,0.16,0.1  C38.83,30.67,38.8,31.6,38.2,32.2z M38.55,28.84l-3.39-3.39L45.6,15.02l3.39,3.39L38.55,28.84z M43.74,36.3  c2.65-3.17,2.24-6.93-1.08-10.18l6.99-6.99c3.3,3.91,6.32,5.77,9.35,5.63c-0.83,5.14-3.83,13.02-14.44,13.02L43.74,36.3z   M59.03,37.26c-3.23,3.42-8.38,5.05-14.91,4.73l0.57-3.22c8.43-0.07,14-5.19,15.33-14.13c0.95-0.18,1.9-0.55,2.87-1.12  C63.44,29.26,62.11,34,59.03,37.26z"/></svg>