<svg xmlns="http://www.w3.org/2000/svg" version="1.1" viewBox="-5.0 -10.0 110.0 135.0">
 <path d="m99.578 49.113c-0.10156-0.50781-0.52344-0.88672-1.0391-0.9375-9.2812-0.875-15.832-5.0508-18.961-13.832 1.0508-1.2266 1.0703-3.125-0.16406-4.3555l-0.89062-0.89062 0.29297-0.29297c2.1016-2.1016 2.1016-5.5195 0-7.6211-2.1055-2.1055-5.5156-2.1055-7.6211 0l-0.29297 0.29297-0.89062-0.89062c-1.2383-1.2383-3.1367-1.2109-4.3555-0.16406-8.8711-3.1602-12.965-9.7852-13.832-18.961-0.046875-0.51563-0.42969-0.9375-0.93359-1.0391-18.332-3.6914-35.203 17.668-34.562 35.578 0.03125 0.86328 0.95312 1.3945 1.7148 0.99609 13.609-7.1367 24.141-11.848 33.766-2.543-1.6602 0.875-2.1562 2.8711-1.3555 4.3633l-12.25 12.25c-1.5547-1.2461-3.8359-1.1484-5.2773 0.29297-1.5469 1.5469-1.5469 4.0586 0 5.6055l1.2852 1.2852c-0.72656 0.72656-16.57 16.57-17.414 17.414l-1.1445-1.1445c-0.45703-0.45703-1.1992-0.45703-1.6562 0l-2.918 2.918c-1.1328 1.1328-2.9648 1.1328-4.0977 0l-1.7852-1.7852c-0.50781-0.50781-1.3398-0.44141-1.7656 0.125-5.3086 7.0742-4.0039 15.078 0.85937 19.938 4.8477 4.8477 12.844 6.1797 19.938 0.85938 0.57031-0.42969 0.62891-1.2656 0.125-1.7656l-1.7852-1.7852c-1.1328-1.1328-1.1328-2.9648 0-4.0977l2.918-2.918c0.45703-0.45703 0.45703-1.1992 0-1.6562l-1.1445-1.1445 17.414-17.414 1.2852 1.2852c1.5469 1.5469 4.0586 1.5469 5.6055 0 1.4414-1.4414 1.5352-3.7227 0.29297-5.2773l12.25-12.25c1.4922 0.80078 3.4883 0.30469 4.3633-1.3555 9.1602 9.4766 4.8477 19.672-2.543 33.766-0.39844 0.76172 0.13281 1.6836 0.99609 1.7148 17.914 0.63672 39.266-16.238 35.574-34.562zm-26.727-26.273c1.1914-1.1914 3.1172-1.1914 4.3086 0 1.1875 1.1875 1.1875 3.1211 0 4.3086l-0.29297 0.29297-4.3086-4.3086zm-51.945 64.426c-2.0469 2.0469-2.0469 5.3633 0 7.4102l0.79297 0.79297c-5.6484 3.6055-11.863 2.4805-15.758-1.4141-3.9336-3.9336-4.9922-10.152-1.4141-15.758l0.79297 0.79297c2.0469 2.0469 5.3633 2.0508 7.4141 0l2.0898-2.0898 8.1719 8.1719zm13.383-17.332-4.2227-4.2227 2.4883-2.4883 4.2227 4.2227zm-4.1445 4.1445-4.2227-4.2227 2.4883-2.4883 4.2227 4.2227zm-4.1445 4.1445-4.2227-4.2227 2.4883-2.4883 4.2227 4.2227zm-5.8828-2.5625 4.2227 4.2227-1.6602 1.6602-4.2227-4.2227zm18.316-9.8711-4.2227-4.2227 1.6602-1.6602 4.2227 4.2227zm11.148-63.223c0.12109 1.0195 0.28125 2 0.48438 2.9531-14.215 0.10547-26.113 15.324-27.188 26.402-1.3711 0.66016-2.7734 1.3633-4.207 2.1055 0.58984-15.93 15.223-33.875 30.91-31.461zm-24.176 28.18c1.8164-10.145 12.84-23.219 25.258-22.879 2.1133 7.0273 6.6836 11.906 13.652 14.555-2.5586 4.4883-6.043 8.1172-10.395 10.824-8.5547-8.6836-17.594-7.3828-28.516-2.5zm29.629 21.637-0.5625-4.1172 4.1172 0.5625zm-10.758-4.0742 0.5625 4.1172-4.1172-0.5625zm7.457-2.7812-4.1172-0.5625 3.5547-3.5547zm1.9102-3.3281 4.1523 4.1523-3.6562-0.5zm-0.82422 11.312-5.5742-0.76172-0.76172-5.5742 5.5742 0.76172zm-11.309 0.82422 3.6562 0.5 0.5 3.6562zm6.0625 0.82422 4.1172 0.5625-3.5547 3.5547zm-0.58984 10.254c-0.63281 0.63281-1.6602 0.63281-2.293 0-1.5352-1.5352-9.2656-9.2656-10.109-10.109-0.63281-0.63281-0.63281-1.6602 0-2.293 0.63281-0.63281 1.6602-0.63281 2.293 0l10.109 10.109c0.63281 0.63281 0.63281 1.6641 0 2.293zm15.098-18.09c-0.30469-0.30469-9.0273-9.0273-9.4062-9.4062-0.42188-0.42188-0.29688-1.1172 0.22656-1.3906 6.1289-3.2031 10.855-7.9336 14.059-14.059 0.27734-0.52734 0.97266-0.64453 1.3906-0.22656 9.2734 9.2734 8.5781 8.5781 9.4062 9.4062 0.42188 0.42187 0.29688 1.1172-0.22656 1.3906-6.1289 3.2031-10.855 7.9336-14.059 14.059-0.27734 0.52734-0.97266 0.64453-1.3906 0.22656zm4.6719-1.2461c2.707-4.3516 6.3359-7.8398 10.824-10.395 2.6445 6.9688 7.5273 11.539 14.555 13.652 0.33594 12.426-12.742 23.445-22.879 25.258 4.8789-10.922 6.1836-19.961-2.5-28.516zm-0.78125 35.25c0.73828-1.4336 1.4453-2.8359 2.1055-4.207 11.086-1.0742 26.301-12.984 26.402-27.188 0.94922 0.19922 1.9336 0.36328 2.9531 0.48438 2.4141 15.691-15.535 30.32-31.461 30.91zm9.4062-20.5c-0.023437 0.6875 0.55859 1.2617 1.2656 1.207 6.0078-0.48828 9.7109-4.1602 11.016-10.906 0.10156-0.51562-0.15625-1.0352-0.62891-1.2695-4.2656-2.1289-7.6211-5.3359-9.9961-9.5508-0.34766-0.61719-1.1562-0.78516-1.7227-0.36328-1.8633 1.3906-3.543 3.1016-4.9844 5.0898-0.3125 0.43359-0.29688 1.0234 0.042969 1.4336 3.5391 4.2891 5.1758 8.9844 5.0078 14.359zm-2.6172-15.125c0.89453-1.1367 1.8789-2.1641 2.9375-3.0664 2.3477 3.7227 5.4922 6.7344 9.4805 8.8984-1.1016 4.6289-3.5469 7.2578-7.4492 7.9961-0.10938-5.1055-1.7422-9.6484-4.9688-13.828zm-17.797-16.035c1.9883-1.4453 3.6992-3.1211 5.0898-4.9844 0.42187-0.56641 0.25-1.375-0.36328-1.7227-4.2188-2.3789-7.4219-5.7344-9.5508-9.9961-0.23438-0.46875-0.75391-0.72656-1.2695-0.62891-6.7461 1.3047-10.418 5.0078-10.906 11.016-0.058594 0.69531 0.50781 1.2891 1.207 1.2656 5.375-0.17188 10.074 1.4648 14.359 5.0039 0.41406 0.34375 1.0039 0.36328 1.4336 0.046875zm-6.5-14.844c2.0859 3.8438 5.0391 7.043 8.8984 9.4805-0.90234 1.0586-1.9297 2.0391-3.0664 2.9375-4.1797-3.2305-8.7227-4.8594-13.824-4.9648 0.73438-3.9062 3.3672-6.3555 7.9922-7.4531z"/>
</svg>