<svg xmlns="http://www.w3.org/2000/svg" xmlns:xlink="http://www.w3.org/1999/xlink" version="1.1" x="0px" y="0px" viewBox="0 0 512 640" enable-background="new 0 0 512 512" xml:space="preserve"><g><g><g><path d="M361.326,152.174c-2.202,0-4.037-1.789-4.037-3.999c0-2.21,1.749-3.999,3.959-3.999h0.078     c2.211,0,3.999,1.789,3.999,3.999C365.325,150.386,363.537,152.174,361.326,152.174z"/></g></g><g><g><path d="M361.084,172.172c-6.412,0-12.434-2.495-16.955-7.025c-9.356-9.356-9.356-24.579,0-33.935     c9.06-9.06,24.852-9.063,33.919-0.012c9.364,9.36,9.364,24.59,0.008,33.947C373.518,169.677,367.488,172.172,361.084,172.172z      M361.092,132.185c-4.271,0-8.286,1.664-11.309,4.682c-6.24,6.236-6.24,16.389,0,22.625c6.037,6.041,16.572,6.033,22.618,0     c3.022-3.022,4.686-7.041,4.686-11.316c0-4.276-1.663-8.294-4.686-11.317C369.379,133.848,365.364,132.185,361.092,132.185z"/></g></g><g><g><g><path d="M256.598,171.988c-0.648,0-1.301-0.156-1.91-0.488l-36.684-19.993c-1.941-1.059-2.656-3.483-1.597-5.424      c1.062-1.941,3.479-2.659,5.424-1.597l36.684,19.994c1.941,1.058,2.655,3.483,1.598,5.424      C259.386,171.235,258.016,171.988,256.598,171.988z"/></g></g><g><g><path d="M219.922,151.995c-1.418,0-2.788-0.754-3.515-2.086c-1.059-1.937-0.344-4.365,1.597-5.424l36.676-20.009      c1.929-1.05,4.366-0.343,5.424,1.597c1.058,1.937,0.344,4.366-1.598,5.424l-36.676,20.01      C221.226,151.839,220.57,151.995,219.922,151.995z"/></g></g><g><g><path d="M256.602,171.988c-2.206,0-3.995-1.784-3.999-3.991c-0.004-2.21,1.785-4.002,3.991-4.006      c0.988-0.5,4.003-6.053,4.022-16.003c-0.016-9.95-3.03-15.507-4.229-16.038c-2.206,0-3.894-1.772-3.894-3.979      c0-2.21,1.891-3.983,4.101-3.983c8.231,0,12.004,12.441,12.02,24.004c-0.023,11.555-3.796,23.98-12.004,23.996      C256.605,171.988,256.605,171.988,256.602,171.988z"/></g></g></g><g><g><g><path d="M507.835,151.987c-0.648,0-1.304-0.156-1.905-0.488l-36.676-20.002c-1.945-1.058-2.656-3.487-1.602-5.424      c1.062-1.94,3.499-2.647,5.428-1.597l36.676,20.001c1.938,1.059,2.656,3.487,1.594,5.424      C510.623,151.233,509.256,151.987,507.835,151.987z"/></g></g><g><g><path d="M471.167,171.988c-1.414,0-2.788-0.753-3.515-2.085c-1.055-1.937-0.344-4.366,1.602-5.424l36.676-20.002      c1.929-1.054,4.357-0.344,5.42,1.597c1.062,1.937,0.344,4.366-1.594,5.424L473.08,171.5      C472.471,171.832,471.814,171.988,471.167,171.988z"/></g></g><g><g><path d="M471.167,171.988c-0.008,0-0.008,0-0.016,0c-8.239-0.027-11.988-12.461-11.988-24c0.023-11.555,3.788-23.984,11.996-24      c0,0,0,0,0.008,0c2.202,0,3.991,1.784,3.999,3.991c0,2.21-1.789,4.002-3.991,4.006c-0.984,0.5-3.999,6.061-4.015,16.011      c0,9.95,3.015,15.499,4.218,16.026c2.21,0.008,3.897,1.788,3.89,3.999C475.26,170.224,473.369,171.988,471.167,171.988z"/></g></g></g><g><g><g><path d="M343.871,44.7c-0.648,0-1.305-0.156-1.906-0.488c-1.944-1.058-2.655-3.487-1.601-5.424l20.001-36.676      c1.062-1.937,3.5-2.659,5.429-1.597c1.937,1.058,2.655,3.487,1.593,5.424l-20.001,36.676      C346.659,43.947,345.292,44.7,343.871,44.7z"/></g></g><g><g><path d="M383.882,44.7c-1.413,0-2.788-0.753-3.515-2.085L360.365,5.939c-1.054-1.938-0.344-4.366,1.602-5.424      c1.921-1.062,4.365-0.34,5.42,1.597l20.002,36.676c1.062,1.937,0.344,4.366-1.594,5.424      C385.186,44.544,384.53,44.7,383.882,44.7z"/></g></g><g><g><path d="M363.873,52.714c-11.552-0.016-23.978-3.78-23.993-12.004c-0.008-2.21,1.78-4.002,3.991-4.006c0,0,0,0,0.008,0      c2.202,0,3.99,1.784,3.998,3.991c0.492,0.992,6.045,4.006,15.996,4.022c9.957,0,15.51-3.019,16.041-4.221      c0-2.207,1.773-3.893,3.983-3.893s3.983,1.89,3.983,4.1C387.881,48.953,375.432,52.714,363.873,52.714z"/></g></g></g><g><g><g><path d="M363.888,295.934c-0.647,0-1.296-0.156-1.905-0.492c-1.945-1.054-2.655-3.482-1.602-5.42l19.986-36.66      c1.062-1.937,3.483-2.655,5.428-1.597c1.938,1.058,2.656,3.487,1.594,5.424l-19.986,36.66      C366.676,295.176,365.31,295.934,363.888,295.934z"/></g></g><g><g><path d="M363.896,295.934c-1.413,0-2.788-0.758-3.515-2.085l-20.009-36.668c-1.055-1.937-0.344-4.366,1.593-5.424      c1.938-1.05,4.374-0.344,5.429,1.593l20.009,36.672c1.062,1.938,0.344,4.366-1.593,5.42      C365.2,295.777,364.544,295.934,363.896,295.934z"/></g></g><g><g><path d="M343.871,259.367c-0.008,0-0.008,0-0.008,0c-2.211-0.004-3.983-1.897-3.976-4.108      c0.016-8.244,12.441-11.997,23.993-11.997c11.559,0.016,24,3.784,24,12.012c0,2.211-1.789,3.999-3.999,3.999      s-3.999-1.788-3.999-3.999c-0.5-0.987-6.053-3.998-16.01-4.014c-9.943,0-15.496,3.019-16.027,4.217      C347.846,257.684,346.073,259.367,343.871,259.367z"/></g></g></g><g><g><g><path d="M296.011,219.856c-1.772,0-3.39-1.188-3.858-2.979c-0.562-2.136,0.711-4.323,2.844-4.886l38.378-10.098      c2.155-0.542,4.327,0.714,4.89,2.847c0.562,2.136-0.719,4.322-2.852,4.885l-38.378,10.099      C296.69,219.813,296.354,219.856,296.011,219.856z"/></g></g><g><g><path d="M296.019,219.856c-0.336,0-0.679-0.043-1.022-0.133c-2.133-0.562-3.405-2.749-2.844-4.885l10.099-38.378      c0.562-2.136,2.757-3.394,4.882-2.847c2.132,0.562,3.412,2.749,2.851,4.885l-10.099,38.379      C299.408,218.669,297.792,219.856,296.019,219.856z"/></g></g><g><g><path d="M334.397,209.758c-1.023,0-2.046-0.387-2.827-1.167c-1.305-1.304-1.523-3.292-0.641-4.823      c-0.344-1.847-3.187-7.068-9.466-13.367c-6.271-6.283-11.496-9.114-13.355-9.458c-1.515,0.887-3.515,0.672-4.818-0.636      c-1.562-1.562-1.562-4.092,0-5.655c2.522-2.526,6.475-2.319,11.762,0.613c3.757,2.085,8.044,5.452,12.074,9.485      c2.827,2.839,16.597,17.311,10.099,23.833C336.443,209.367,335.42,209.758,334.397,209.758z"/></g></g></g><g><g><g><path d="M393.363,94.216c-1.773,0-3.39-1.187-3.858-2.983c-0.562-2.136,0.711-4.322,2.851-4.881l38.371-10.083      c2.132-0.574,4.318,0.711,4.881,2.851c0.562,2.136-0.719,4.323-2.851,4.881l-38.37,10.083      C394.043,94.173,393.699,94.216,393.363,94.216z"/></g></g><g><g><path d="M421.651,122.504c-0.336,0-0.68-0.043-1.016-0.133c-2.14-0.562-3.413-2.745-2.851-4.881l10.091-38.371      c0.562-2.136,2.772-3.401,4.881-2.851c2.132,0.562,3.413,2.745,2.851,4.881l-10.09,38.371      C425.041,121.317,423.424,122.504,421.651,122.504z"/></g></g><g><g><path d="M420.065,123.086c-2.062,0-4.521-0.789-7.356-2.37c-3.749-2.082-8.037-5.456-12.066-9.489      c-2.836-2.835-16.636-17.3-10.099-23.836c1.562-1.562,4.093-1.562,5.654,0c1.304,1.308,1.515,3.296,0.633,4.827      c0.344,1.851,3.179,7.072,9.466,13.355c6.279,6.291,11.504,9.13,13.355,9.47c1.522-0.882,3.514-0.671,4.826,0.636      c1.562,1.562,1.562,4.093,0,5.655C423.307,122.5,421.831,123.086,420.065,123.086z"/></g></g></g><g><g><g><path d="M431.734,219.849c-1.773,0-3.391-1.188-3.858-2.983l-10.091-38.363c-0.562-2.132,0.711-4.319,2.851-4.881      c2.116-0.559,4.319,0.714,4.882,2.851l10.09,38.363c0.562,2.132-0.719,4.319-2.851,4.881      C432.413,219.806,432.078,219.849,431.734,219.849z"/></g></g><g><g><path d="M431.742,219.849c-0.336,0-0.68-0.043-1.023-0.133l-38.363-10.099c-2.132-0.562-3.405-2.749-2.843-4.885      c0.562-2.137,2.749-3.409,4.882-2.847l38.362,10.098c2.14,0.562,3.413,2.75,2.851,4.886      C435.131,218.661,433.515,219.849,431.742,219.849z"/></g></g><g><g><path d="M393.379,209.75c-1.023,0-2.039-0.387-2.819-1.16c-0.797-0.792-1.75-2.214-1.758-4.483      c-0.008-5.537,6.108-13.629,11.841-19.357c2.842-2.827,17.322-16.604,23.836-10.091c1.562,1.562,1.562,4.093,0,5.655      c-1.312,1.304-3.304,1.515-4.826,0.636c-1.852,0.344-7.068,3.183-13.363,9.458c-6.271,6.275-9.106,11.489-9.45,13.336      c0.882,1.527,0.679,3.515-0.625,4.827C395.433,209.355,394.402,209.75,393.379,209.75z"/></g></g></g><g><g><g><path d="M306.117,122.504c-1.773,0-3.39-1.187-3.858-2.979L292.16,81.146c-0.562-2.136,0.711-4.323,2.844-4.885      c2.132-0.551,4.326,0.711,4.889,2.847l10.099,38.379c0.562,2.136-0.719,4.323-2.851,4.885      C306.797,122.461,306.461,122.504,306.117,122.504z"/></g></g><g><g><path d="M334.397,94.231c-0.336,0-0.68-0.043-1.023-0.133l-38.37-10.106c-2.133-0.562-3.405-2.749-2.844-4.885      c0.562-2.136,2.766-3.386,4.882-2.847l38.37,10.106c2.141,0.562,3.414,2.749,2.852,4.885      C337.787,93.045,336.17,94.231,334.397,94.231z"/></g></g><g><g><path d="M307.773,123.074h-0.008c-2.266-0.004-3.679-0.953-4.476-1.746c-1.562-1.566-1.554-4.096,0.008-5.655      c1.312-1.308,3.312-1.511,4.818-0.632c1.852-0.347,7.068-3.187,13.355-9.462c6.271-6.275,9.114-11.493,9.458-13.347      c-0.883-1.527-0.672-3.507,0.625-4.819c1.569-1.558,4.1-1.57,5.662-0.02c0.797,0.792,1.742,2.21,1.75,4.475      c0.008,5.537-6.115,13.637-11.841,19.365C321.394,116.959,313.303,123.074,307.773,123.074z"/></g></g></g><g><g><g><path d="M164.818,328.705c-1.023,0-2.046-0.391-2.827-1.172c-1.562-1.562-1.562-4.092,0-5.654l39.585-39.597      c1.562-1.562,4.092-1.562,5.654,0c1.562,1.562,1.562,4.092,0,5.654l-39.585,39.597      C166.864,328.314,165.841,328.705,164.818,328.705z"/></g></g><g><g><path d="M181.781,356.977c-1.023,0-2.046-0.39-2.827-1.171c-1.562-1.562-1.562-4.093,0-5.654l45.193-45.189      c1.562-1.562,4.092-1.562,5.654,0c1.562,1.562,1.562,4.093,0,5.655l-45.193,45.188      C183.828,356.587,182.805,356.977,181.781,356.977z"/></g></g></g><g><g><path d="M6.5,498.323c-1.019,0-2.039-0.391-2.819-1.163c-2.273-2.258-3.526-5.272-3.522-8.482c0-3.194,1.246-6.209,3.507-8.481     c1.558-1.562,4.088-1.577,5.655-0.016c1.565,1.554,1.573,4.085,0.016,5.654c-0.762,0.766-1.18,1.772-1.18,2.843     c0,1.062,0.41,2.062,1.164,2.812c1.565,1.555,1.573,4.085,0.016,5.655C8.555,497.925,7.527,498.323,6.5,498.323z"/></g></g><g><g><path d="M23.472,511.976c-3.202,0-6.217-1.242-8.489-3.515c-1.562-1.562-1.562-4.093-0.004-5.654     c1.562-1.562,4.096-1.562,5.658-0.008c0.762,0.765,1.769,1.179,2.835,1.179h0.004c1.062,0,2.058-0.414,2.812-1.171     c1.559-1.555,4.089-1.57,5.654-0.008c1.562,1.562,1.57,4.092,0.008,5.654c-2.261,2.272-5.264,3.522-8.462,3.522     C23.479,511.976,23.476,511.976,23.472,511.976z"/></g></g><g><g><path d="M17.806,509.648c-1.023,0-2.046-0.391-2.827-1.172L3.666,497.152c-1.562-1.562-1.562-4.101,0-5.655     c1.562-1.562,4.092-1.562,5.655,0l11.312,11.325c1.562,1.562,1.562,4.092,0,5.654C19.852,509.258,18.829,509.648,17.806,509.648z     "/></g></g><g><g><path d="M256.57,236.944c-1.027,0-2.05-0.39-2.831-1.175c-1.559-1.562-1.559-4.097,0.008-5.655     c0.753-0.75,1.167-1.753,1.167-2.819s-0.417-2.074-1.175-2.835c-1.559-1.562-1.559-4.096,0.008-5.654     c1.562-1.554,4.093-1.562,5.654,0.008c2.265,2.269,3.511,5.284,3.511,8.482c0,3.206-1.25,6.221-3.519,8.482     C258.612,236.554,257.594,236.944,256.57,236.944z"/></g></g><g><g><path d="M279.196,259.57c-1.023,0-2.047-0.391-2.827-1.172c-1.562-1.562-1.562-4.092,0-5.654     c2.265-2.269,5.279-3.519,8.481-3.519c0.008,0,0.008,0,0.008,0c3.202,0.004,6.217,1.254,8.474,3.522     c1.562,1.562,1.562,4.097-0.008,5.654c-1.562,1.559-4.092,1.559-5.654-0.008c-0.75-0.754-1.75-1.171-2.812-1.171     c-0.008,0-0.008,0-0.008,0c-1.07,0-2.069,0.417-2.827,1.175C281.242,259.18,280.219,259.57,279.196,259.57z"/></g></g><g><g><path d="M481.391,127.799c-1.859,0-3.522-1.304-3.913-3.198c-9.317-45.572-44.799-80.998-90.401-90.249     c-2.164-0.441-3.562-2.55-3.124-4.717c0.438-2.159,2.538-3.534,4.718-3.124c48.742,9.896,86.684,47.767,96.641,96.489     c0.445,2.163-0.953,4.276-3.116,4.717C481.929,127.772,481.656,127.799,481.391,127.799z"/></g></g><g><g><path d="M246.327,128.002c-0.262,0-0.531-0.027-0.8-0.078c-2.164-0.441-3.561-2.55-3.124-4.717     c9.915-48.832,47.868-86.793,96.688-96.704c2.211-0.41,4.28,0.969,4.718,3.124c0.438,2.167-0.961,4.276-3.124,4.717     c-45.673,9.267-81.17,44.775-90.44,90.456C249.857,126.694,248.19,128.002,246.327,128.002z"/></g></g><g><g><path d="M339.888,269.552c-0.258,0-0.531-0.031-0.797-0.078c-48.742-9.896-86.68-47.771-96.645-96.497     c-0.445-2.164,0.953-4.276,3.116-4.717c2.171-0.449,4.272,0.953,4.717,3.116c9.325,45.576,44.811,81.005,90.405,90.256     c2.163,0.441,3.562,2.546,3.124,4.718C343.418,268.239,341.754,269.552,339.888,269.552z"/></g></g><g><g><path d="M387.873,269.536c-1.859,0-3.53-1.312-3.913-3.21c-0.438-2.164,0.96-4.272,3.124-4.71     c45.681-9.239,81.178-44.728,90.448-90.409c0.437-2.164,2.522-3.538,4.717-3.124c2.163,0.441,3.562,2.55,3.124,4.717     c-9.91,48.836-47.867,86.777-96.703,96.657C388.404,269.513,388.139,269.536,387.873,269.536z"/></g></g><g><g><path d="M443.051,50.199c-1.867,0-3.538-1.312-3.913-3.214c-0.438-2.167,0.969-4.272,3.132-4.706l28.272-5.654     c2.179-0.438,4.272,0.972,4.71,3.136c0.429,2.167-0.977,4.272-3.141,4.705l-28.271,5.655     C443.574,50.175,443.309,50.199,443.051,50.199z"/></g></g><g><g><path d="M465.676,72.816c-0.257,0-0.522-0.023-0.788-0.078c-2.163-0.434-3.569-2.538-3.132-4.705l5.654-28.272     c0.43-2.167,2.546-3.593,4.701-3.136c2.164,0.434,3.569,2.538,3.141,4.705l-5.655,28.272     C469.215,71.504,467.543,72.816,465.676,72.816z"/></g></g><g><g><path d="M468.496,262.257c-1.867,0-3.538-1.312-3.913-3.214l-5.654-28.272c-0.438-2.167,0.968-4.271,3.132-4.705     c2.194-0.461,4.279,0.968,4.709,3.136l5.654,28.272c0.43,2.167-0.976,4.271-3.139,4.705     C469.02,262.233,468.754,262.257,468.496,262.257z"/></g></g><g><g><path d="M468.504,262.257c-0.258,0-0.523-0.023-0.789-0.078l-28.272-5.654c-2.163-0.434-3.569-2.538-3.132-4.706     c0.43-2.171,2.546-3.588,4.701-3.136l28.273,5.655c2.163,0.433,3.568,2.538,3.139,4.705     C472.041,260.945,470.37,262.257,468.504,262.257z"/></g></g><g><g><path d="M259.261,75.644c-1.866,0-3.538-1.312-3.917-3.214l-5.654-28.28c-0.434-2.167,0.973-4.272,3.136-4.706     c2.183-0.457,4.276,0.968,4.706,3.136l5.654,28.28c0.434,2.167-0.973,4.272-3.136,4.705     C259.784,75.62,259.519,75.644,259.261,75.644z"/></g></g><g><g><path d="M281.898,53.026c-0.258,0-0.523-0.023-0.789-0.078l-28.284-5.662c-2.167-0.434-3.569-2.539-3.136-4.706     c0.43-2.171,2.55-3.585,4.706-3.136l28.284,5.662c2.171,0.434,3.568,2.538,3.139,4.706     C285.437,51.714,283.765,53.026,281.898,53.026z"/></g></g><g><g><path d="M275.221,269.427c-1.023,0-2.047-0.391-2.827-1.172l-28.28-28.272c-1.562-1.562-1.562-4.092,0-5.654     c1.562-1.562,4.093-1.562,5.654,0l28.28,28.272c1.562,1.562,1.562,4.093,0,5.654     C277.267,269.036,276.244,269.427,275.221,269.427z"/></g></g><g><g><path d="M229.977,314.662c-1.023,0-2.046-0.391-2.827-1.172l-28.276-28.271c-1.562-1.562-1.562-4.093,0-5.654     c1.562-1.562,4.092-1.562,5.655,0l28.276,28.271c1.562,1.562,1.562,4.093,0,5.654C232.023,314.271,231,314.662,229.977,314.662z"/></g></g><g><g><path d="M250.236,243.278c-1.023,0-2.046-0.391-2.827-1.171c-1.562-1.562-1.562-4.092,0-5.654l6.334-6.334     c1.562-1.562,4.093-1.562,5.654,0s1.562,4.092,0,5.655l-6.334,6.333C252.282,242.888,251.26,243.278,250.236,243.278z"/></g></g><g><g><path d="M272.276,266.49c-1.023,0-2.046-0.391-2.827-1.172c-1.562-1.562-1.562-4.092,0-5.654l6.92-6.92     c1.562-1.562,4.092-1.562,5.654,0c1.562,1.562,1.562,4.093,0,5.654l-6.92,6.92C274.322,266.1,273.299,266.49,272.276,266.49z"/></g></g><g><g><path d="M243.996,249.511c-1.023,0-2.046-0.391-2.827-1.171c-1.562-1.562-4.093-1.562-5.654,0c-1.562,1.562-4.093,1.562-5.655,0     s-1.562-4.092,0-5.654c4.678-4.678,12.285-4.678,16.963,0c1.562,1.562,1.562,4.092,0,5.654     C246.042,249.12,245.02,249.511,243.996,249.511z"/></g></g><g><g><path d="M210.081,283.453c-1.023,0-2.046-0.391-2.827-1.171c-2.269-2.265-3.519-5.28-3.519-8.481c0-3.211,1.25-6.217,3.519-8.49     c1.562-1.55,4.096-1.554,5.658,0.008c1.558,1.562,1.558,4.093-0.004,5.654c-0.758,0.758-1.175,1.758-1.175,2.828     c0,1.062,0.417,2.069,1.175,2.818c1.562,1.562,1.562,4.093,0.004,5.663C212.131,283.062,211.104,283.453,210.081,283.453z"/></g></g><g><g><path d="M210.073,272.129c-1.023,0-2.046-0.391-2.827-1.172c-1.562-1.562-1.562-4.092,0-5.654l22.614-22.61     c1.562-1.562,4.092-1.562,5.655,0c1.562,1.562,1.562,4.092,0,5.654l-22.614,22.61     C212.119,271.738,211.096,272.129,210.073,272.129z"/></g></g><g><g><path d="M238.357,308.406c-3.073,0-6.143-1.171-8.486-3.506c-1.562-1.562-1.562-4.093-0.004-5.655     c1.562-1.562,4.096-1.562,5.659-0.008c1.562,1.562,4.096,1.57,5.658,0.008c1.562-1.562,4.092-1.562,5.654,0     c1.562,1.562,1.562,4.093,0,5.655C244.5,307.235,241.431,308.406,238.357,308.406z"/></g></g><g><g><path d="M266.622,283.453c-1.023,0-2.046-0.391-2.827-1.171c-1.562-1.562-1.562-4.093,0-5.655c1.554-1.562,1.554-4.1,0-5.654     c-1.562-1.562-1.562-4.092,0-5.654c1.562-1.562,4.092-1.562,5.654,0c4.678,4.679,4.678,12.285,0,16.964     C268.668,283.062,267.645,283.453,266.622,283.453z"/></g></g><g><g><path d="M244.012,306.071c-1.023,0-2.046-0.391-2.827-1.171c-1.562-1.562-1.562-4.093,0-5.655l22.61-22.618     c1.562-1.562,4.092-1.562,5.654,0c1.562,1.562,1.562,4.093,0,5.655l-22.61,22.618     C246.058,305.681,245.035,306.071,244.012,306.071z"/></g></g><g><g><path d="M227.15,289.217c-1.023,0-2.046-0.391-2.828-1.171c-1.562-1.562-1.562-4.093,0-5.654l22.618-22.618     c1.562-1.562,4.093-1.562,5.654,0c1.562,1.562,1.562,4.092,0,5.654l-22.618,22.618     C229.196,288.826,228.173,289.217,227.15,289.217z"/></g></g><g><g><g><path d="M159.167,379.595c-1.358,0-2.683-0.694-3.432-1.944l-16.967-28.272c-1.137-1.89-0.523-4.351,1.371-5.482      c1.894-1.133,4.35-0.523,5.487,1.366l16.967,28.272c1.137,1.898,0.523,4.351-1.37,5.491      C160.577,379.407,159.866,379.595,159.167,379.595z"/></g></g><g><g><path d="M130.887,362.632c-1.023,0-2.046-0.391-2.828-1.172c-1.562-1.562-1.562-4.093,0-5.654l11.31-11.31      c1.562-1.562,4.092-1.562,5.654,0c1.562,1.562,1.562,4.093,0,5.655l-11.309,11.309      C132.934,362.241,131.91,362.632,130.887,362.632z"/></g></g><g><g><path d="M147.851,390.904c-1.023,0-2.046-0.391-2.827-1.172c-1.562-1.562-1.562-4.093,0-5.654l11.312-11.309      c1.562-1.562,4.093-1.562,5.655,0c1.562,1.562,1.562,4.092,0,5.654l-11.313,11.309      C149.896,390.514,148.874,390.904,147.851,390.904z"/></g></g><g><g><path d="M176.131,362.632c-1.359,0-2.683-0.695-3.433-1.944l-16.963-28.273c-1.136-1.89-0.523-4.35,1.371-5.482      c1.894-1.14,4.354-0.523,5.486,1.367l16.964,28.272c1.136,1.897,0.523,4.35-1.371,5.49      C177.541,362.444,176.83,362.632,176.131,362.632z"/></g></g><g><g><path d="M147.851,345.668c-1.023,0-2.046-0.391-2.827-1.172c-1.562-1.562-1.562-4.092,0-5.654l11.312-11.309      c1.562-1.562,4.093-1.562,5.655,0s1.562,4.093,0,5.654l-11.313,11.309C149.896,345.277,148.874,345.668,147.851,345.668z"/></g></g><g><g><path d="M164.818,373.94c-1.023,0-2.046-0.391-2.827-1.171c-1.562-1.562-1.562-4.093,0-5.655l11.309-11.309      c1.562-1.562,4.092-1.562,5.654,0s1.562,4.093,0,5.654l-11.309,11.31C166.864,373.55,165.841,373.94,164.818,373.94z"/></g></g><g><g><path d="M142.2,396.559c-1.359,0-2.683-0.695-3.433-1.945l-16.963-28.271c-1.136-1.891-0.523-4.351,1.371-5.483      c1.897-1.14,4.35-0.53,5.486,1.367l16.964,28.272c1.136,1.897,0.523,4.35-1.371,5.49      C143.609,396.371,142.899,396.559,142.2,396.559z"/></g></g><g><g><path d="M113.92,379.595c-1.023,0-2.046-0.39-2.827-1.171c-1.562-1.562-1.562-4.093,0-5.654l11.312-11.31      c1.562-1.562,4.093-1.562,5.654,0c1.562,1.562,1.562,4.093,0,5.654l-11.312,11.31      C115.966,379.205,114.943,379.595,113.92,379.595z"/></g></g><g><g><path d="M130.887,407.867c-1.023,0-2.046-0.391-2.828-1.172c-1.562-1.562-1.562-4.092,0-5.654l11.31-11.309      c1.562-1.562,4.092-1.562,5.654,0s1.562,4.093,0,5.654l-11.309,11.309C132.934,407.477,131.91,407.867,130.887,407.867z"/></g></g><g><g><path d="M125.236,413.521c-1.358,0-2.683-0.695-3.432-1.944l-16.967-28.272c-1.137-1.89-0.523-4.35,1.371-5.482      s4.346-0.516,5.487,1.367l16.967,28.271c1.137,1.898,0.523,4.351-1.371,5.49C126.646,413.334,125.936,413.521,125.236,413.521z"/></g></g><g><g><path d="M96.957,396.559c-1.023,0-2.046-0.391-2.828-1.172c-1.562-1.562-1.562-4.092,0-5.654l11.31-11.309      c1.562-1.562,4.092-1.562,5.654,0c1.562,1.562,1.562,4.092,0,5.654l-11.309,11.309      C99.003,396.168,97.979,396.559,96.957,396.559z"/></g></g><g><g><path d="M113.92,424.831c-1.023,0-2.046-0.391-2.827-1.172c-1.562-1.562-1.562-4.093,0-5.654l11.312-11.31      c1.562-1.562,4.093-1.562,5.654,0c1.562,1.562,1.562,4.093,0,5.655l-11.312,11.309      C115.966,424.44,114.943,424.831,113.92,424.831z"/></g></g><g><g><path d="M108.27,430.501c-1.359,0-2.683-0.695-3.433-1.944l-16.964-28.288c-1.136-1.891-0.523-4.351,1.371-5.483      c1.901-1.14,4.35-0.523,5.486,1.367l16.964,28.288c1.136,1.897,0.523,4.351-1.371,5.49      C109.679,430.313,108.968,430.501,108.27,430.501z"/></g></g><g><g><path d="M79.989,413.521c-1.023,0-2.046-0.391-2.827-1.171c-1.562-1.562-1.562-4.093,0-5.655l11.312-11.309      c1.562-1.562,4.093-1.562,5.654,0c1.562,1.562,1.562,4.093,0,5.654l-11.312,11.31C82.035,413.131,81.012,413.521,79.989,413.521      z"/></g></g><g><g><path d="M96.957,441.81c-1.023,0-2.046-0.39-2.828-1.171c-1.562-1.562-1.562-4.093,0-5.654l11.31-11.31      c1.562-1.562,4.092-1.562,5.654,0c1.562,1.562,1.562,4.093,0,5.654l-11.309,11.31C99.003,441.42,97.979,441.81,96.957,441.81z"/></g></g><g><g><path d="M91.306,447.465c-1.358,0-2.683-0.695-3.433-1.945l-16.967-28.288c-1.137-1.89-0.523-4.351,1.37-5.482      c1.898-1.148,4.351-0.523,5.487,1.366l16.967,28.289c1.137,1.897,0.523,4.35-1.371,5.49      C92.716,447.277,92.005,447.465,91.306,447.465z"/></g></g><g><g><path d="M63.025,430.501c-1.022,0-2.046-0.391-2.827-1.172c-1.562-1.562-1.562-4.093-0.004-5.654l11.309-11.324      c1.562-1.562,4.096-1.562,5.659-0.008c1.562,1.562,1.562,4.093,0.004,5.662l-11.309,11.324      C65.076,430.11,64.049,430.501,63.025,430.501z"/></g></g><g><g><path d="M79.989,458.773c-1.023,0-2.046-0.391-2.827-1.172c-1.562-1.562-1.562-4.092,0-5.654l11.312-11.309      c1.562-1.562,4.093-1.562,5.654,0c1.562,1.562,1.562,4.092,0,5.654l-11.312,11.309      C82.035,458.383,81.012,458.773,79.989,458.773z"/></g></g><g><g><path d="M74.339,464.428c-1.359,0-2.683-0.695-3.433-1.945l-16.964-28.271c-1.136-1.891-0.523-4.351,1.371-5.482      c1.894-1.141,4.35-0.523,5.486,1.366l16.963,28.272c1.136,1.897,0.523,4.35-1.371,5.49      C75.748,464.24,75.038,464.428,74.339,464.428z"/></g></g><g><g><path d="M6.5,487.015c-1.023,0-2.046-0.391-2.827-1.172c-1.562-1.562-1.562-4.093,0-5.654l50.871-50.859      c1.562-1.562,4.093-1.562,5.654,0c1.562,1.562,1.562,4.093,0,5.655l-50.87,50.858C8.547,486.624,7.523,487.015,6.5,487.015z"/></g></g><g><g><path d="M29.118,509.633c-1.023,0-2.046-0.391-2.827-1.172c-1.562-1.562-1.562-4.093,0-5.654l45.216-45.205      c1.562-1.562,4.092-1.562,5.655,0c1.562,1.562,1.562,4.093,0,5.654l-45.217,45.205      C31.165,509.242,30.142,509.633,29.118,509.633z"/></g></g></g></g></svg>