<svg xmlns="http://www.w3.org/2000/svg" version="1.1" viewBox="-5.0 -10.0 110.0 135.0">
 <path d="m88.77 8.9922-0.78516 2.9336-16.219 16.219-1.832-1.832-2.0703 2.0742-1.0703-1.0703c-1.8867-1.7695-4.1016-3.1484-6.5234-4.0547-2.1875-0.82031-4.5039-1.2461-6.8438-1.25h-0.28125l-0.125 0.125c-0.47266 0.44141-0.75 1.0547-0.75781 1.7031-0.011719 0.64844 0.23828 1.2734 0.69922 1.7344 0.5625 0.55859 1.375 0.79297 2.1484 0.61328 1.0039-0.29297 2.0664-0.30859 3.0781-0.050781 2.0352 0.76172 3.9141 1.8789 5.5508 3.3047l-1.5781 1.5781 2.5547 2.5547-0.6875 0.6875c-8.8398 8.8398-29.719 24.742-29.93 24.898l-0.11328 0.085938-0.070313 0.125c-6.7109 12.078-25.348 28.375-28.637 31.199-0.29297 0.25-0.36328 0.66797-0.17188 1 0.19531 0.33594 0.60547 0.48438 0.97266 0.35547 19.492-7.1016 34.551-18.797 43.578-33.844 3.9102-6.5156 18.602-18.602 18.797-18.77l1-1 2.5547 2.5547 1.6328-1.6328c3.5625 3.125 8.1367 4.8555 12.875 4.8672h0.28125l0.125-0.125h0.003906c0.77344-0.75 0.96484-1.9141 0.47656-2.8711-0.48828-0.93359-1.543-1.418-2.5703-1.1836-1.0039 0.29688-2.0664 0.3125-3.0781 0.054687-2.2461-0.83984-4.3047-2.1172-6.0547-3.7578l-1.0547-1.0547 2.0742-2.0742-1.832-1.832 16.215-16.211 2.9336-0.78516 0.96484-3.6016-2.6328-2.6328zm-53.738 51.164c1.6797-1.2812 21.391-16.371 29.957-24.938l0.6875-0.6875 0.66406 0.66406-0.97266 0.97656c-0.58594 0.52344-14.414 12.895-18.992 18.996-8.9336 11.914-20.945 22.812-35.004 31.816 6.9922-6.3828 18.496-17.621 23.66-26.828zm32.516-21.844c-0.61328 0.5-15.02 12.359-19.051 19.074-7.7656 12.938-20.105 23.352-35.941 30.441 14-9.0352 25.973-19.934 34.906-31.848 4.4961-5.9961 18.664-18.672 18.836-18.824l1-1 1.1992 1.1992zm4.4648 0.64062-7.9297-7.9297 0.64844-0.64844 7.9297 7.9297zm2.7461-1.7578-0.003906-0.003906c1.8867 1.7695 4.1016 3.1484 6.5234 4.0547 1.2539 0.35938 2.5859 0.36328 3.8398 0.003906 0.39062-0.082031 0.79297 0.070312 1.0273 0.39453 0.23438 0.32031 0.25781 0.75 0.054688 1.0977-4.5039-0.089844-8.8164-1.8438-12.105-4.918l-9.3672-9.3672-0.027343 0.027344c-1.7773-1.5625-3.8203-2.7852-6.0352-3.6172-1.2539-0.35938-2.582-0.36328-3.8359-0.003907-0.39062 0.082031-0.79297-0.070312-1.0273-0.39453s-0.25781-0.75391-0.058593-1.0977c2.0703 0.039062 4.1172 0.43359 6.0508 1.1602 2.2461 0.83984 4.3047 2.1172 6.0586 3.7578zm-0.60156-3.4531-4.8633-4.8633 0.64844-0.64844 4.8633 4.8633zm1.2734-4.9336-1.1328-0.011719-0.015625-1.2422 0.1875-0.1875 1.2422 0.015624 0.011718 1.1328zm2.0859-2.0859-1.1406-0.015625-0.015625-1.2422 0.1875-0.1875 1.2422 0.015625 0.011719 1.1328zm2.0859-2.0859-1.1328-0.011719-0.015625-1.2422 0.1875-0.1875 1.2422 0.015626 0.011719 1.1328zm2.0859-2.0859-1.1328-0.011719-0.015626-1.2422 0.1875-0.1875 1.2422 0.015625 0.011719 1.1328zm2.0859-2.0859-1.1328-0.011719-0.015625-1.2422 0.1875-0.1875 1.2422 0.015624 0.011718 1.1328zm2.0859-2.0859-1.1328-0.011718-0.015624-1.2422 0.1875-0.1875 1.2422 0.015625 0.011719 1.1328zm2.0859-2.0859-1.1328-0.011719-0.015625-1.2422 0.1875-0.1875 1.2422 0.015626 0.011719 1.1328zm5-3.1484-2.0859 0.55859-1.5273-1.5273 0.55859-2.0859 2.0859-0.55859 1.5117 1.5352z"/>
</svg>