<svg xmlns="http://www.w3.org/2000/svg" xmlns:xlink="http://www.w3.org/1999/xlink" version="1.1" x="0px" y="0px" viewBox="0 0 100 125" enable-background="new 0 0 100 100" xml:space="preserve"><path d="M94.7,12.2c0-0.5-0.2-0.9-0.5-1.3l-5.4-5.4C88.4,5.2,88,5,87.5,5l-3.2,0c-0.8,0-1.6,0.6-1.8,1.4l-1.2,4.8l-10.4,8.9  c-3.7-2-7.4-2.7-9.4-2.9c-1.6-0.2-3,0.9-3.2,2.5l0,0.2c-0.1,0.8,0.1,1.5,0.6,2.2c0.5,0.6,1.2,1,1.9,1.1c1.2,0.1,2.9,0.4,4.7,1.2  L9,83.6C6.4,86.5,5.3,93.7,5.2,94c0,0,0,0,0,0c0,0.1,0,0.1,0,0.2c0,0,0,0,0,0c0,0.1,0,0.2,0.1,0.3c0,0,0,0,0,0.1  c0,0.1,0.1,0.1,0.1,0.2c0,0,0.1,0,0.1,0.1c0,0,0.1,0.1,0.1,0.1c0,0,0,0,0.1,0c0,0,0,0,0.1,0c0.1,0,0.2,0,0.3,0c0,0,0,0,0,0  c0,0,0,0,0,0c0,0,0,0,0,0s0,0,0,0c0,0,0.1,0,0.1,0c0.3,0,7.7-1.1,10.6-3.7l58.9-56.1c0.6,1.5,0.9,2.9,1.1,3.9  c0.3,1.4,1.4,2.3,2.8,2.3c0.2,0,0.5,0,0.7-0.1c1.4-0.4,2.3-1.8,2.1-3.4l0-0.1c-0.3-2.1-0.8-4.9-2.6-8.4L88.6,19l4.8-1.7  c0.8-0.2,1.3-0.9,1.3-1.8L94.7,12.2z M10.3,84.7l57-59.7c1.3,0.7,2.6,1.6,3.9,2.9c0.1,0.1,0.1,0.1,0.2,0.2L7.5,91.6  C8,89.3,8.9,86.2,10.3,84.7z M15.7,90.1c-1.5,1.4-4.7,2.2-7,2.7l63.8-63.4c1.1,1.4,1.9,2.8,2.5,4.2L15.7,90.1z M80.7,38.3L80.7,38.3  c0.1,0.7-0.3,1.4-0.8,1.5c-0.7,0.2-1.3-0.3-1.5-0.9c-0.3-1.3-0.7-3.3-1.6-5.3c0,0,0,0,0,0c-1-2.2-2.4-4.6-4.5-6.7  c-1.6-1.6-3.3-2.7-4.9-3.5c0,0,0,0,0,0c-2.5-1.2-4.8-1.7-6.3-1.8c-0.3,0-0.6-0.2-0.8-0.4c-0.2-0.3-0.3-0.6-0.2-0.9l0-0.2  c0.1-0.6,0.6-1,1.2-1c0,0,0.1,0,0.1,0c1.9,0.2,5.6,0.9,9.2,3c0,0,0,0,0,0c0,0,0,0,0,0c0,0,4.5,2.3,7.4,8c0,0,0,0,0,0c0,0,0,0,0,0  C79.9,33.3,80.4,36.1,80.7,38.3z M78.9,28c-2.2-3.9-5-6-6.4-7l9.7-8.3c1,0.8,3.5,2.7,4.9,5.4L78.9,28z M93,15.6  C92.9,15.6,92.9,15.6,93,15.6l-4.5,1.6c-1.7-3-4.3-5.1-5.5-5.9l1.1-4.5c0-0.1,0.1-0.1,0.1-0.1l3.2,0c0,0,0.1,0,0.1,0l5.4,5.4  c0,0,0,0,0,0.1l0,3.3C93.1,15.6,93,15.6,93,15.6z"/></svg>